<?xml version="1.0" encoding="UTF-8" standalone="no"?>
<!-- Created with Inkscape (http://www.inkscape.org/) -->

<svg
   xmlns:dc="http://purl.org/dc/elements/1.1/"
   xmlns:cc="http://creativecommons.org/ns#"
   xmlns:rdf="http://www.w3.org/1999/02/22-rdf-syntax-ns#"
   xmlns:svg="http://www.w3.org/2000/svg"
   xmlns="http://www.w3.org/2000/svg"
   xmlns:sodipodi="http://sodipodi.sourceforge.net/DTD/sodipodi-0.dtd"
   xmlns:inkscape="http://www.inkscape.org/namespaces/inkscape"
   id="svg2"
   version="1.1"
   inkscape:version="0.48.1 "
   width="600"
   height="557.67999"
   sodipodi:docname="Map Gyeongi-do.svg">
  <metadata
     id="metadata8">
    <rdf:RDF>
      <cc:Work
         rdf:about="">
        <dc:format>image/svg+xml</dc:format>
        <dc:type
           rdf:resource="http://purl.org/dc/dcmitype/StillImage" />
        <dc:title />
      </cc:Work>
    </rdf:RDF>
  </metadata>
  <defs
     id="defs6" />
  <sodipodi:namedview
     pagecolor="#ffffff"
     bordercolor="#666666"
     borderopacity="1"
     objecttolerance="10"
     gridtolerance="10"
     guidetolerance="10"
     inkscape:pageopacity="0"
     inkscape:pageshadow="2"
     inkscape:window-width="1432"
     inkscape:window-height="842"
     id="namedview4"
     showgrid="false"
     inkscape:zoom="1"
     inkscape:cx="397.59352"
     inkscape:cy="242.22169"
     inkscape:window-x="1"
     inkscape:window-y="0"
     inkscape:window-maximized="0"
     inkscape:current-layer="layer2" />
  <g
     inkscape:groupmode="layer"
     id="layer1"
     inkscape:label="Layer1"
     style="display:inline"
     sodipodi:insensitive="true"
     transform="translate(0,279.68)">
    <g
       id="g3874">
      <path
         inkscape:connector-curvature="0"
         id="path3783"
         d="M 3.7164746e-6,-4.7509589e-7 3.7164746e-6,-278 176.81226,-278 l 176.81226,0 0,277.99999952490412 L 353.62452,278 176.81226,278 3.7164746e-6,278 l 0,-278.00000047509587 z"
         style="fill:#c6ecff;fill-opacity:1;stroke:none" />
      <path
         inkscape:connector-curvature="0"
         id="path3836"
         d="m 330.58481,-0.23689527 0,-277.99999473 134.43969,0 134.4397,0 0,277.99999473 0,278.00000527 -134.4397,0 -134.43969,0 0,-278.00000527 z"
         style="fill:#f0f0f0;fill-opacity:1;stroke:none" />
    </g>
    <path
       style="fill:#fefee9;fill-opacity:1;stroke:none"
       d="m 365.8523,266.92462 c -2.98411,-1.56838 -6.40654,-3.09559 -7.60541,-3.3938 -1.22251,-0.30409 -4.17271,-2.57477 -6.71793,-5.1706 -2.496,-2.54561 -5.59705,-5.067 -6.89124,-5.60307 -1.29418,-0.53607 -4.17702,-2.94837 -6.4063,-5.36067 -2.46787,-2.67047 -4.66331,-4.38599 -5.61298,-4.38599 l -1.55975,0 0,-109.63215 0,-109.632154 1.85873,-2.738997 c 2.35018,-3.463182 2.35018,-5.528062 0,-7.735938 l -1.85873,-1.746189 0.0247,-127.193522 c 0.0246,-126.334 0.0346,-127.18173 1.47878,-125.44842 0.79973,0.9598 1.84748,3.05824 2.32834,4.6632 0.89534,2.9884 1.90037,4.2057 6.75841,8.18584 2.51744,2.06252 3.81751,4.28785 8.96451,15.34456 0.83479,1.79328 4.30045,3.07052 6.95476,2.56311 0.88144,-0.1685 4.19605,-2.62221 7.3658,-5.45269 3.16975,-2.83049 6.51319,-5.33458 7.42987,-5.56465 2.28118,-0.57254 13.76472,1.66838 15.02915,2.93281 1.40504,1.40504 2.30276,5.78855 1.5836,7.73262 -0.32576,0.88064 -1.554,2.09847 -2.72942,2.7063 -3.03439,1.56915 -4.12394,3.13407 -3.60939,5.18419 0.88917,3.54274 8.60339,9.40187 12.37864,9.40187 0.86001,0 4.89162,-1.38114 8.95914,-3.0692 7.3658,-3.05688 7.41414,-3.06561 12.03473,-2.17204 2.55157,0.49344 9.7476,2.56492 15.99119,4.60329 14.15278,4.6205 13.99882,4.44868 12.82154,14.30877 -0.99458,8.32997 -0.56785,10.44232 3.47983,17.22519 3.2718,5.4827 5.29817,6.64259 11.36149,6.50329 7.2532,-0.16663 18.60585,3.59012 18.60585,6.15694 0,3.43659 7.00166,14.0228 10.66036,16.118 0.884,0.50622 4.45113,1.0877 7.92695,1.29216 l 6.31969,0.37175 1.26341,2.60222 c 0.69488,1.43123 1.5891,4.64823 1.98716,7.14891 0.63073,3.96229 0.49162,5.34513 -1.0823,10.75886 -0.99333,3.4167 -2.28549,6.6916 -2.87145,7.27757 -0.58597,0.58596 -3.95025,1.49193 -7.47617,2.01325 -7.27987,1.07634 -9.25162,2.24726 -14.88195,8.837628 -3.73588,4.372904 -3.91179,5.401288 -1.80111,10.529492 0.84254,2.047081 0.76311,2.781198 -0.65847,6.08577 -2.07869,4.832041 -2.03592,6.509576 0.24213,9.496253 1.0223,1.340309 1.85873,2.634968 1.85873,2.877027 0,0.242059 -2.00195,2.592053 -4.44878,5.222211 -5.64175,6.064469 -5.43325,7.097641 2.18955,10.849759 2.97028,1.462041 5.73116,3.249108 6.1353,3.97127 0.40415,0.722161 0.91266,3.907871 1.13005,7.079351 0.31234,4.557038 0.077,6.764683 -1.12241,10.526838 -2.43473,7.637216 -2.57778,9.412157 -0.89425,11.095684 1.9695,1.969498 5.17218,1.865193 11.50865,-0.374794 2.86245,-1.011894 6.22784,-1.846866 7.47867,-1.855491 2.69673,-0.01859 7.73612,2.906269 18.41122,10.685879 12.02456,8.7630428 17.05802,10.4220947 34.33302,11.3163454 5.9442,0.3077019 12.33249,1.1549415 16.59285,2.2006045 7.80018,1.9144714 10.92633,3.9302061 21.14342,13.6332541 l 5.80172,5.509839 -2.06644,1.362577 c -1.5663,1.032785 -3.50602,1.364762 -8.01438,1.371617 -7.54811,0.01145 -10.95334,0.966474 -13.2721,3.722155 -2.68289,3.188439 -3.21568,6.416238 -1.39002,8.4212 0.80731,0.886608 1.84248,2.783012 2.30036,4.214236 0.45789,1.431223 2.00467,3.536556 3.4373,4.678524 2.84157,2.265058 3.19034,3.928363 1.50648,7.184585 -0.60406,1.168124 -1.44668,6.086447 -1.87248,10.929596 -0.42581,4.843156 -0.93455,9.530149 -1.13054,10.415552 -0.19598,0.885396 -3.36822,5.494924 -7.04942,10.243389 -4.41371,5.693347 -6.69309,9.277993 -6.69309,10.525812 0,1.040726 1.67723,5.134607 3.72718,9.097507 3.28484,6.35016 3.7791,7.90999 4.16468,13.14313 0.59508,8.07668 -0.10929,9.64542 -4.98043,11.09199 -4.89554,1.45382 -5.8854,2.3074 -5.8854,5.0751 0,1.23228 -1.36025,4.99898 -3.02278,8.37046 -2.42689,4.92156 -5.13421,8.47612 -13.73364,18.03157 -11.39522,12.66206 -14.81415,15.32467 -21.24333,16.54393 -2.12305,0.40263 -4.2731,1.07482 -4.77789,1.49375 -0.50478,0.41893 -1.06236,2.84367 -1.23906,5.38831 -0.22255,3.20479 -1.20451,6.66002 -3.19531,11.24338 l -2.87402,6.61678 -5.25431,2.40957 c -2.88988,1.32526 -6.64645,2.63788 -8.34795,2.91692 -3.47809,0.5704 -4.79063,1.74731 -6.46177,5.79407 -0.72095,1.7458 -1.93332,3.11505 -3.23389,3.65232 -1.18409,0.48917 -7.84695,1.00407 -15.46343,1.19502 -15.11206,0.37887 -15.59677,0.52122 -26.18961,7.69182 -5.47427,3.70569 -11.56347,5.85755 -16.57533,5.85755 -4.05106,0 -5.03873,1.19965 -6.25107,7.5927 -0.59804,3.15368 -1.42889,6.37214 -1.84633,7.15214 -1.36863,2.5573 -5.40379,3.84227 -12.07516,3.84526 -7.39113,0.003 -8.86245,0.72525 -16.11595,7.90773 -5.38494,5.33221 -7.58308,6.70091 -13.13965,8.18158 -5.77916,1.53997 -8.0374,1.2406 -13.90516,-1.84337 l 0,0 z"
       id="path4111"
       inkscape:connector-curvature="0" />
  </g>
  <g
     inkscape:groupmode="layer"
     id="layer3"
     inkscape:label="Layer1"
     style="display:inline"
     transform="translate(0,279.68)">
    <g
       id="g4164">
      <path
         inkscape:connector-curvature="0"
         id="path4149"
         d="m 361.57186,265.32536 c -3.47583,-1.74112 -4.16128,-1.35542 -5.53364,-2.00749 -1.37235,-0.65205 -4.24151,-3.18388 -6.07036,-5.20614 -1.82884,-2.02226 -5.40899,-4.70079 -6.92463,-5.37936 -1.51565,-0.67858 -3.23587,-2.17554 -5.08313,-4.31965 -2.74312,-3.18393 -3.05844,-4.07783 -5.75926,-4.59904 -4.78866,-0.92413 -11.79221,-1.34012 -13.67041,-0.33493 -0.89203,0.4774 -5.35271,4.69006 -9.72166,8.483 -8.39714,7.29006 -9.19469,7.34735 -18.85686,8.83406 -4.08085,0.62793 -6.26069,0.61476 -8.28757,-0.0542 -3.22633,-1.06478 -7.37984,-0.59415 -10.50972,1.32118 -1.24564,0.76228 -3.92393,1.81466 -5.60799,2.26225 -4.78197,1.27095 -27.4124,3.98967 -29.1612,3.55075 -0.86307,-0.21662 -1.8936,-2.25365 -3.85605,-4.52674 -2.11178,-2.44607 -5.35672,-4.82697 -7.63322,-5.96939 -4.18267,-2.099 -9.02995,-6.03951 -14.90359,-11.48357 -2.32519,-2.15514 -3.37273,-2.83539 -5.73395,-4.19587 -2.36121,-1.36048 -6.00486,-3.18243 -11.58477,-4.80846 -2.43304,-0.70901 -6.399,-2.21267 -8.68356,-3.08089 -2.28871,-0.86979 -3.00224,-1.39176 -3.36478,-1.76138 -0.62627,-0.63849 -1.66658,-3.10507 -3.57231,-6.68804 -1.90573,-3.58297 -4.90639,-7.92218 -6.4521,-9.96678 -3.80562,-5.03395 -4.67476,-6.65107 -2.44942,-7.2096 2.50935,-0.6298 4.50059,-3.33841 6.26932,-10.50196 1.65665,-6.70961 4.76957,-12.73136 9.17007,-18.59888 2.57273,-3.43041 3.35107,-6.80722 2.05182,-8.10647 -0.23481,-0.23481 -1.05642,1.12512 -3.17617,2.21185 -2.11976,1.08672 -6.76912,2.81758 -9.57569,4.00838 -4.39848,1.86622 -5.6577,2.53537 -7.98594,6.77982 -3.1093,5.66834 -5.16007,5.94538 -9.421,6.50608 -4.07389,0.53609 -5.60346,1.09902 -7.12964,-2.37627 -0.74685,-1.70068 -4.49351,-7.61853 -7.5697,-11.04418 -2.4309,-2.70705 -4.17674,-4.23772 -5.01489,-5.6138 -0.83814,-1.37607 -0.76859,-2.59755 -0.98291,-4.15587 -0.27122,-1.97199 -1.03476,-3.56385 -1.58873,-4.0236 -4.05207,-3.36292 -20.4389,-4.76293 -26.4951,-2.33974 -1.19826,0.47945 -2.60105,0.92282 -3.96505,0.76252 -1.36399,-0.1603 -2.68918,-0.92427 -3.732232,-1.26851 -2.187873,-0.72207 -2.851978,-1.35566 -2.535079,-2.05268 0.316898,-0.69701 -0.108774,-1.50165 1.627364,-2.47741 1.668433,-0.93772 6.006847,-4.27279 7.642367,-6.43903 1.63552,-2.1662 2.19312,-3.45243 2.85955,-3.45243 2.46738,0 8.65442,-3.78509 9.94772,-6.51475 1.04532,-2.20626 -0.42137,-2.54567 2.29224,-3.31433 1.84015,-0.52124 7.03578,-2.11078 8.467,-2.88412 1.43123,-0.77334 4.57496,-1.99557 6.82403,-2.71605 6.02132,-1.92894 10.08381,-3.79518 12.70797,-6.59727 3.05941,-3.26687 3.15617,-4.39247 1.63567,-7.49221 -1.35588,-2.76414 -3.02063,-4.67487 -2.55171,-6.85151 0.46892,-2.17663 5.14863,-10.717946 7.55445,-15.606316 3.04207,-6.181176 2.86587,-4.475692 5.51686,-7.345369 3.24674,-3.514579 5.7805,-6.592635 8.03176,-9.669232 2.25126,-3.076598 4.22002,-6.151738 6.33675,-9.660484 3.19613,-5.297995 5.24244,-7.991423 5.87542,-12.024387 0.90995,-5.797489 0.79848,-6.713198 -1.76416,-9.103044 -1.36176,-1.269938 -2.272,-1.12954 -1.96441,-2.654964 0.22498,-1.115737 0.91843,-6.328562 1.38822,-9.139604 1.23753,-7.404934 2.38904,-8.766637 10.00076,-8.251404 6.90968,0.467724 12.30537,1.914428 12.30537,3.535769 0,0.616579 -0.77393,2.802588 -1.79623,4.01753 -2.34439,2.78615 -2.58585,4.174185 -0.2043,8.237975 2.00342,3.418587 3.96345,3.498503 10.36646,4.481512 3.25152,0.499181 7.85126,3.267192 16.22533,7.982289 5.03059,2.832513 10.261,2.888106 18.03044,0.629903 2.86656,-0.833173 11.91016,-2.310029 20.06677,-3.136079 8.14121,-0.824488 14.57906,-1.660443 15.37579,-2.086844 1.88201,-1.007224 3.87257,-1.186029 5.38404,3.291358 1.63142,4.832725 3.46059,7.805326 8.92112,7.805326 3.52857,0 4.25898,-0.694779 6.12496,-2.264895 2.23424,-1.87998 5.50128,-2.712893 13.69003,-4.345432 7.59352,-1.51387 15.7458,-8.57761 15.7458,-13.751962 0,-1.217462 -3.17076,-5.734557 -3.60315,-8.554027 l -0.66565,-4.340471 4.03075,-2.985183 c 7.06165,-5.229871 6.8802,-8.673137 2.17007,-12.188794 -1.61407,-1.204748 -3.0272,-0.921697 -6.50518,-0.770538 -2.80449,0.121888 -4.69767,-0.38455 -5.88973,-1.527055 -1.19206,-1.1425049 -1.683,-2.9210759 -1.683,-5.3434532 0,-1.7954828 -1.28679,-5.66048529 -2.09565,-7.4430611 -1.54924,-3.4142151 -0.98887,-6.0450337 0.059,-6.4606684 0.85655,-0.339739 -0.29738,-11.2795723 -1.691,-16.0734273 -1.38622,-4.76848 -2.58888,-6.007996 -7.47736,-7.429115 -4.26166,-1.238897 -16.58721,-2.585119 -24.06207,-2.613587 -4.352,-0.01658 -5.65472,0.214003 -9.97465,2.489187 -2.75001,1.448353 -7.47805,5.114467 -9.97204,7.077484 -2.0626,1.623468 -3.42139,2.417556 -4.84801,2.862126 -1.42661,0.444571 -2.92104,0.539625 -5.25489,0.765026 -6.05104,0.584402 -11.60942,1.485975 -16.39151,3.604974 -4.12527,1.827959 -7.08748,5.096369 -8.79474,11.0004966 -2.48246,8.5849912 -2.42843,9.7676679 -4.56817,10.7972577 -1.73773,0.8361542 -6.23508,1.7659175 -9.28763,1.8168248 -3.05255,0.050907 -4.66029,-0.7770414 -7.36881,-1.4563112 -5.54803,-1.3913932 -9.1016,0.3474599 -15.2124,3.3978692 -4.75536,2.3737863 -6.09646,1.03594 -10.47796,-0.6458033 C 177.93473,5.9262193 174.29487,5.7236836 171.0235,5.5692379 167.36739,5.3966286 161.69253,4.0434153 156.89388,2.6555152 150.8534,0.90843372 148.09494,0.65393675 143.20502,0.67562443 135.90396,0.70796637 132.92447,1.308182 125.71492,5.6642611 120.7789,8.6466408 120.6853,8.9264223 116.91032,8.4827493 113.15993,8.0419659 108.76527,7.526986 106.90226,6.3532704 105.03925,5.1795548 104.70787,3.2221035 103.08402,0.64637711 100.53903,-3.3904511 100.03703,-4.8981899 99.4947,-10.134267 c -0.34679,-3.348089 -1.048305,-7.445944 -1.48254,-8.877167 -0.434234,-1.431224 -0.659313,-6.539555 -1.264063,-11.581008 -0.60475,-5.041461 -1.494612,-10.011397 -2.053859,-11.349862 -0.559247,-1.338473 -1.23979,-3.842576 -1.512318,-5.64107 -1.024623,-6.761806 -2.283361,-7.818135 -4.087001,-8.503881 -1.734344,-0.659396 -1.039864,-0.860732 -1.039864,-8.443079 0,-4.303789 -0.03875,-8.012574 0.06666,-8.012574 0.105413,0 4.137701,0.731616 7.814808,2.007754 6.225907,2.160694 7.188357,2.943634 16.535297,2.921835 6.90976,-0.01613 11.05183,-0.818235 13.56985,-1.607705 4.04592,-1.268503 12.03173,-6.450832 13.51229,-8.77308 0.56913,-0.892674 0.77292,-7.061089 1.07315,-13.086636 0.13753,-2.760217 0.40485,-5.223717 0.6961,-7.141058 0.29124,-1.917342 1.04392,-2.663522 1.27716,-3.239102 1.19564,-2.95056 0.80803,-26.51846 -0.4047,-28.87646 -1.09815,-2.13523 -2.51289,-2.07435 -6.68572,-3.11574 -6.00782,-1.49933 -6.33554,-7.76312 -1.68518,-13.81378 1.77427,-2.30853 3.16605,-3.00405 5.13255,-3.30308 1.44784,-0.22016 8.8193,-1.70662 14.77685,-2.84491 12.05961,-2.3042 12.07865,-1.75253 18.46561,2.38794 5.80361,3.76231 13.61518,4.8475 18.64824,2.74455 1.33635,-0.55835 3.70395,-2.43571 5.79606,-4.78302 3.12132,-3.50204 4.16147,-5.48354 5.79685,-10.75731 1.49645,-4.82576 1.80357,-7.64692 2.83625,-9.34872 1.03268,-1.7018 2.79091,-2.28424 5.68961,-4.13254 2.97178,-1.8949 12.78403,-8.17852 21.57583,-14.03999 17.20741,-11.47213 17.59844,-13.8938 22.46585,-21.65819 l 1.57628,-4.58433 46.57733,0.375 45.51484,0 1.15213,2.93305 c 0.90792,2.31134 1.68039,3.06993 3.64432,3.57883 3.7004,0.95887 5.49454,0.34376 9.49915,-3.25672 l 3.62052,-3.25516 10.81339,0 c 6.0338,0 11.00651,0.31245 11.25029,0.7069 0.24029,0.3888 0.48378,1.95411 0.54108,3.47848 0.0788,2.09523 -0.30031,3.05669 -1.55343,3.93993 -4.84412,3.41426 -5.5161,4.23445 -5.03613,6.14682 0.91588,3.64914 8.56767,9.51963 12.4082,9.51963 0.86001,0 4.89162,-1.38114 8.95914,-3.0692 7.3658,-3.05688 7.41414,-3.06561 12.03473,-2.17204 2.55157,0.49344 9.7476,2.56492 15.99119,4.60329 14.15278,4.6205 13.99882,4.44868 12.82154,14.30877 -0.57969,4.85514 -0.61014,7.9193 -0.0972,9.77718 1.12886,4.08841 6.16298,12.03935 8.26557,13.05475 1.02231,0.49369 4.36802,0.96201 7.43493,1.04071 9.84286,0.25258 17.32962,3.19395 18.11415,7.11663 0.47043,2.3521 4.50732,9.41153 6.98628,12.2171 2.87608,3.25501 4.07466,3.70487 10.88102,4.08394 l 6.76938,0.37702 1.26341,2.60222 c 0.69488,1.43123 1.5891,4.64823 1.98716,7.14891 0.63073,3.96229 0.49162,5.34513 -1.0823,10.75886 -0.99333,3.4167 -2.28549,6.6916 -2.87145,7.27757 -0.58597,0.58596 -3.95025,1.49193 -7.47617,2.01325 -7.27987,1.07634 -9.25162,2.24726 -14.88195,8.837628 -3.73588,4.372904 -3.91179,5.401288 -1.80111,10.529492 0.84254,2.047081 0.76311,2.781198 -0.65847,6.08577 -2.07869,4.832041 -2.03592,6.509576 0.24213,9.496253 1.0223,1.340309 1.85873,2.634968 1.85873,2.877027 0,0.242059 -2.00195,2.592053 -4.44878,5.222211 -5.64175,6.064469 -5.43325,7.097641 2.18955,10.849759 2.97028,1.462041 5.73116,3.249108 6.1353,3.97127 0.40415,0.722161 0.91266,3.907871 1.13005,7.079351 0.31234,4.557038 0.077,6.764683 -1.12241,10.526838 -2.43473,7.637216 -2.57778,9.412157 -0.89425,11.095684 1.9695,1.969498 5.17218,1.865193 11.50865,-0.374794 2.86245,-1.011894 6.22784,-1.846866 7.47867,-1.855491 2.69673,-0.01859 7.73612,2.906269 18.41122,10.685879 12.02456,8.7630428 17.05802,10.4220947 34.33302,11.3163454 5.9442,0.3077019 12.33249,1.1549415 16.59285,2.2006045 7.80018,1.9144714 10.92633,3.9302061 21.14342,13.6332541 l 5.80172,5.509839 -2.06644,1.362577 c -1.5663,1.032785 -3.50602,1.364762 -8.01438,1.371617 -7.54811,0.01145 -10.95334,0.966474 -13.2721,3.722155 -2.67946,3.184365 -3.21507,6.415294 -1.39602,8.4212 0.80402,0.886608 1.6939,2.589801 1.97752,3.784883 0.28363,1.195076 1.83311,3.377115 3.4433,4.848971 3.19238,2.918127 3.50466,4.203744 1.81483,7.471506 -0.63495,1.227878 -1.46313,6.240201 -1.92871,11.673088 -0.92348,10.776332 -0.90959,10.744912 -9.71075,21.953421 -3.30742,4.21208 -5.09158,7.157664 -5.09158,8.405988 0,1.709564 1.08614,4.172584 6.081,13.789774 1.67952,3.23378 2.597,13.55263 1.46248,16.44852 -0.60331,1.53998 -1.67936,2.27131 -4.63205,3.14817 -4.89554,1.45382 -5.8854,2.3074 -5.8854,5.0751 0,3.88932 -5.74002,14.29732 -11.09533,20.11843 -2.70197,2.93699 -6.94492,9.04368 -9.91491,12.38211 -6.35685,7.14542 -10.51285,9.881 -15.70565,10.70187 -5.1485,0.81386 -5.82039,1.17294 -6.19596,6.58142 -0.22255,3.20479 -1.74518,6.76929 -3.68144,11.37596 l -2.87402,6.83775 -5.29851,2.89571 c -2.78981,1.52467 -6.91161,2.4169 -8.61311,2.69594 -3.47809,0.5704 -4.65805,1.1286 -6.32919,5.17536 -0.72095,1.7458 -0.16555,2.84988 -1.46612,3.38715 -1.18384,0.48906 -9.57219,2.4628 -17.187,2.65407 -13.09852,0.32902 -13.68254,-0.60892 -18.04872,1.58893 -2.45352,1.23506 -6.54755,3.81551 -8.85961,5.81215 -4.34566,3.7528 -11.15344,5.60282 -16.1865,5.4986 -4.04471,-0.0838 -4.63292,1.01444 -5.83715,7.36515 -0.59383,3.13165 -1.48205,6.82573 -2.01201,7.67433 -1.51283,2.42242 -6.44861,3.79754 -12.81495,3.80062 -6.90109,0.003 -8.08235,0.92392 -15.7584,8.38687 -5.80052,5.63947 -10.43763,7.65765 -17.24785,8.35651 -3.29046,0.33766 -3.69337,0.86165 -9.28715,-1.94045 l -1.0625,-0.90625 z"
         style="fill:#fefee9;fill-opacity:1;stroke:none"
         sodipodi:nodetypes="csssssssscsssssssssssssssssssssssssssssssssssssssssssssssssssssssssssssscsssssssssssssssssssssssssssssssssssssssssssssssssssssssscccssscsscssssssscssssscssscsssssssssssssssssscssssssssssssssssssscsssssssssscssccc" />
      <path
         inkscape:connector-curvature="0"
         id="path4151"
         d="m 259.21629,-223.3453 c 3.21112,-8.66815 3.26443,-9.6733 7.01766,-11.43753 1.85045,-0.86981 6.21895,-4.38734 8.33277,-6.51812 4.71782,-4.75566 17.93868,-15.04645 22.63365,-16.07394 l 3.67081,-1.30525 6.95472,3.05637 c 3.88297,1.70644 6.38321,2.91886 7.2252,3.82166 0.842,0.90279 0.0257,1.49596 0.0257,2.96388 0,3.12803 2.07722,3.55502 8.84146,3.55502 4.75557,0 5.92302,0.42116 8.31413,2.67627 1.44151,1.35952 2.86469,4.4434 3.39625,6.21757 0.9635,3.21587 2.011,3.62512 6.78223,7.52228 1.4688,1.19973 3.75377,4.24271 4.74967,6.85597 l 1.82912,4.79964 -45.74969,0 -46.2497,-0.125 z"
         style="fill:#fefee9;fill-opacity:1;stroke:none"
         sodipodi:nodetypes="sssscsssssssscccs" />
    </g>
  </g>
  <g
     inkscape:groupmode="layer"
     id="layer2"
     inkscape:label="Layer2"
     style="display:inline"
     transform="translate(0,279.68)">
    <g
       id="g4230"
       transform="translate(1.3746684,-0.87658732)">
      <path
         inkscape:connector-curvature="0"
         id="path3878"
         d="m 0,254.84022 c 0,0 1.8829089,-3.57753 5.0838539,0.18829 3.2009451,3.76582 2.8243633,4.70727 6.2135991,8.47309 3.389236,3.76582 4.895563,2.25949 5.460436,5.27215 0.564873,3.01265 0.564873,8.66138 0.564873,8.66138 l 0,0 0.376581,-0.18829"
         style="color:#000000;fill:none;stroke:#838383;stroke-width:1px;stroke-linecap:butt;stroke-linejoin:miter;stroke-miterlimit:4;stroke-opacity:1;stroke-dasharray:none;stroke-dashoffset:0;marker:none;visibility:visible;display:inline;overflow:visible;enable-background:accumulate" />
      <g
         id="g3956">
        <path
           sodipodi:nodetypes="csssssssssssssssssssssssssssssssssssssssscsssssssssssssssssssssssssssssssssssssssssssssssssc"
           style="color:#000000;fill:none;stroke:#838383;stroke-width:1px;stroke-linecap:butt;stroke-linejoin:miter;stroke-miterlimit:4;stroke-opacity:1;stroke-dasharray:none;stroke-dashoffset:0;marker:none;visibility:visible;display:inline;overflow:visible;enable-background:accumulate"
           d="m 26.737306,278.37658 c 0,0 -2.447782,-5.08385 0.753163,-7.53163 3.200945,-2.44779 10.54429,-2.63608 7.719927,-8.47309 -2.824364,-5.83702 1.318036,-8.47309 -6.778472,-9.97942 -8.096508,-1.50633 -13.368653,-0.37658 -13.745235,-4.33069 -0.376582,-3.95411 -3.954108,-8.2848 -3.954108,-16.00473 0,-7.71992 5.460435,-12.42719 6.778471,-11.86232 1.318037,0.56487 38.034759,3.95411 46.131268,-1.69462 8.096508,-5.64873 17.699343,-15.62814 28.808505,-11.10916 11.109165,4.51898 22.783195,10.73258 23.724655,11.86232 0.94145,1.12975 2.63607,8.09651 6.40189,9.03797 3.76581,0.94145 54.03948,0.18829 56.11068,1.31803 2.0712,1.12975 -1.31803,2.63607 5.64873,4.89557 6.96676,2.25949 20.33541,6.59018 22.5949,9.03796 2.25949,2.44778 13.36866,12.61549 17.88764,13.93352 4.51898,1.31804 7.53163,6.40189 8.84967,7.90822 1.31804,1.50633 0.75316,3.76582 9.60284,2.63607 8.84967,-1.12974 24.28952,-2.82436 26.7373,-5.08385 2.44778,-2.25949 9.22625,-3.57753 11.48575,-1.88291 2.25949,1.69462 17.32276,-1.12975 19.77054,-2.63607 2.44778,-1.50633 12.61549,-10.73258 14.4984,-12.61549 1.88291,-1.88291 5.27214,-3.76582 11.48574,-2.63607 6.2136,1.12974 8.09651,0.75316 9.03796,3.20094 0.94146,2.44778 5.83702,6.77847 8.2848,7.34335 2.44778,0.56487 2.63607,0.75316 4.89557,4.33069 2.25949,3.57752 9.60283,7.34334 10.73258,6.96676 1.12974,-0.37658 5.46043,4.70727 11.86232,5.46043 6.40189,0.75317 16.38131,-3.01265 18.82909,-6.40189 2.44778,-3.38923 9.60284,-9.60283 12.4272,-10.35599 2.82436,-0.75317 16.75789,2.25949 19.20567,-5.83702 2.44778,-8.09651 0.94145,-12.23891 3.95411,-12.61549 3.01265,-0.37658 11.86232,-0.18829 17.51105,-4.70727 5.64873,-4.51898 13.55694,-8.66138 15.81643,-9.03797 2.2595,-0.37658 29.74996,1.88291 31.068,-3.76581 1.31804,-5.64873 3.76582,-7.15506 6.2136,-6.96677 2.44778,0.18829 13.74523,-4.51898 14.4984,-6.0253 0.75316,-1.50633 7.53163,-15.43986 6.40189,-19.20568 -1.12975,-3.76581 1.50633,-4.33069 3.38923,-4.70727 1.88291,-0.37658 5.08386,0.37658 11.29746,-4.33069 6.2136,-4.70727 7.71992,-7.34334 7.71992,-8.09651 0,-0.75316 15.43986,-14.68669 17.32277,-20.71199 1.8829,-6.02531 4.51898,-7.90822 4.51898,-7.90822 0,0 -1.69462,-3.57753 0,-5.27215 1.69461,-1.69461 8.47309,-2.0712 9.79112,-4.33069 1.31804,-2.25949 0.75317,-15.06327 -0.75316,-17.69934 -1.50633,-2.63607 -8.2848,-12.803779 -6.40189,-15.816434 1.88291,-3.012654 12.61549,-15.251561 13.55694,-18.264216 0.94146,-3.012654 0.75317,-19.393961 2.63608,-21.465161 1.8829,-2.071199 2.63607,-5.460435 0.37658,-7.155053 -2.25949,-1.694618 -5.08386,-2.824364 -5.64873,-7.155054 -0.56487,-4.33069 -3.38924,-2.824363 -2.82436,-5.272145 0.56487,-2.447781 2.0712,-6.40189 6.02531,-7.719926 3.9541,-1.318036 13.18036,0.564872 16.00472,-1.129746 2.82436,-1.694617 4.89556,-3.012654 3.57753,-3.954108 C 597.25869,23.619012 581.06568,6.6728327 575.60524,6.2962509 570.1448,5.9196691 563.55462,2.718724 560.91855,3.0953058 558.28248,3.4718876 536.81732,4.2250511 526.64961,-3.6831661 516.4819,-11.591383 507.06736,-17.804983 504.24299,-18.746437 c -2.82436,-0.941454 -11.48574,1.694618 -13.55694,3.012654 -2.0712,1.318036 -7.71993,1.318036 -8.2848,-2.25949 -0.56487,-3.577527 4.1424,-12.238908 3.76582,-14.68669 -0.37658,-2.447781 -0.37658,-13.180362 -3.20095,-14.310107 -2.82436,-1.129745 -11.48574,-4.142399 -10.92087,-6.778472 0.56487,-2.636072 8.47309,-7.343344 8.47309,-10.920871 0,-3.577527 -4.33069,-3.200945 -3.57752,-7.343345 0.75316,-4.142399 3.76581,-6.778472 3.20094,-9.602835 -0.56487,-2.824363 -4.70727,-5.460436 -1.88291,-8.284799 2.82436,-2.824363 7.71993,-10.732578 13.93353,-11.297458 6.2136,-0.56487 11.29745,0 12.4272,-4.70727 1.12974,-4.70727 2.82436,-8.84967 3.20094,-10.92087 0.37658,-2.0712 -1.31804,-16.00472 -5.08385,-16.5696 -3.76582,-0.56487 -12.05062,2.82437 -17.13447,-4.33069 -5.08386,-7.15505 -6.59018,-10.73258 -6.59018,-13.18036 0,-2.44778 -14.12182,-6.59018 -16.5696,-6.02531 -2.44778,0.56488 -10.16771,0.94146 -11.48575,-3.01265 -1.31803,-3.95411 -6.02531,-5.64873 -5.83701,-14.31011 0.18829,-8.66138 4.1424,-14.87498 -3.38924,-17.51105 -7.53164,-2.63607 -25.60756,-9.60284 -31.82116,-8.09651 -6.2136,1.50633 -12.80378,7.34334 -17.69934,4.89556 -4.89557,-2.44778 -10.16771,-6.96676 -8.66138,-9.60283 1.50632,-2.63607 5.27214,-3.01266 6.40189,-5.27215 1.12974,-2.25949 0,-9.97941 -3.20095,-10.356 -3.20094,-0.37658 -12.80378,-3.9541 -16.94618,-1.12974 -4.1424,2.82436 -10.356,11.29745 -13.93352,10.356 -3.57753,-0.94146 -4.89557,-1.12975 -5.64873,-4.89557 -0.75316,-3.76581 -6.40189,-13.55694 -9.03796,-14.3101 -2.63608,-0.75317 -4.51899,-2.82437 -5.64873,-7.15506 -1.12975,-4.33069 -4.51898,-8.47309 -9.79113,-8.2848 -5.27214,0.1883 -11.10916,0.1883 -10.356,-3.20094 0.75317,-3.38924 0.56488,-3.57753 -3.57752,-5.27215 -4.1424,-1.69461 -12.61549,-4.51898 -10.356,-6.0253 2.25949,-1.50633 52.79602,-18.16822 52.79602,-18.16822"
           id="path3880"
           inkscape:connector-curvature="0" />
        <path
           sodipodi:nodetypes="cssssscsssssssssssssssssssssssssssssssssssssssssssssssssssssc"
           style="color:#000000;fill:none;stroke:#838383;stroke-width:1px;stroke-linecap:butt;stroke-linejoin:miter;stroke-miterlimit:4;stroke-opacity:1;stroke-dasharray:none;stroke-dashoffset:0;marker:none;visibility:visible;display:inline;overflow:visible;enable-background:accumulate"
           d="m 300.88725,-259.3189 c 0,0 -7.34176,2.94936 -10.91928,5.77373 -3.57753,2.82436 -13.36866,9.41454 -14.87498,11.29745 -1.50633,1.88291 -4.3307,5.08385 -6.77848,6.2136 -2.44778,1.12975 -4.89556,1.31804 -6.77847,5.08385 -1.88291,3.76582 -6.59018,23.15978 -13.93352,28.9968 -7.34335,5.83702 -39.72938,26.36072 -39.72938,26.36072 0,0 -3.01266,1.31804 -3.95411,5.08386 -0.94145,3.76582 -2.25949,11.67403 -6.77847,16.38131 -4.51898,4.70727 -6.02531,6.40189 -10.356,6.59018 -4.33069,0.18829 -10.54429,-0.18829 -14.68669,-3.76582 -4.1424,-3.57753 -8.84967,-4.33069 -9.60284,-3.95411 -0.75316,0.37658 -16.00472,3.01265 -17.13447,3.57753 -1.12974,0.56487 -7.71992,0.37658 -9.41454,1.69462 -1.69462,1.31803 -5.08385,5.83701 -5.27214,7.71992 -0.1883,1.88291 -1.69462,7.15506 3.38923,8.66138 5.08386,1.50633 7.71993,0.75317 8.47309,5.46044 0.75316,4.70727 1.12975,25.41927 -0.94145,28.05534 -2.0712,2.636072 1.12974,19.770543 -3.38924,23.159779 -4.51898,3.389236 -8.84967,6.966763 -14.4984,7.908217 -5.64872,0.941455 -18.6408,1.882909 -25.98414,-1.129745 -7.343345,-3.012654 -10.167708,-3.389236 -9.979417,-2.259491 0.188291,1.129746 -0.753163,14.68669 0.564873,16.381307 1.318036,1.694618 2.824363,-0.753163 3.577527,3.389236 0.753163,4.1424 1.129745,9.414545 2.447781,10.54429 1.318036,1.129745 2.259491,16.193016 2.636073,18.640798 0.376581,2.447781 1.318036,5.837017 2.25949,9.414544 0.941453,3.577527 -0.188291,9.7911262 2.259493,12.8037804 2.44778,3.0126542 9.60283,13.5569436 10.356,22.4066156 0.75316,8.849672 4.51898,12.80378 4.51898,16.381307 0,3.577527 -2.44778,12.992071 -3.76582,16.94618 -1.31804,3.954108 -0.94145,7.531635 0.94145,8.284799 1.88291,0.753163 21.27687,16.004725 22.40662,22.594906 1.12975,6.590181 0.56487,17.134467 3.76582,19.205667 3.20094,2.0712 9.22625,4.1424 9.03796,7.90822 -0.18829,3.76582 3.57753,5.46044 2.44778,7.71993 -1.12974,2.25949 -4.89556,6.77847 -12.05061,9.03796 -7.15506,2.25949 -8.84968,2.44778 -10.92088,4.33069 -2.0712,1.88291 -8.0965,1.50633 -9.03796,3.20095 -0.94145,1.69461 -0.75316,3.38923 -1.88291,4.51898 -1.12974,1.12974 -4.70727,3.38923 -6.40189,4.1424 -1.69462,0.75316 -2.63607,-0.18829 -3.76582,1.50632 -1.12974,1.69462 -4.51898,6.77847 -7.34334,7.90822 -2.824363,1.12975 -4.895563,2.63607 -3.012654,4.33069 1.882908,1.69462 5.460434,3.38924 8.096504,2.82436 2.63608,-0.56487 0.94146,-2.0712 9.79113,-2.44778 8.84967,-0.37658 9.03796,0.56488 11.86233,1.50633 2.82436,0.94145 6.40189,0.75316 7.34334,3.57753 0.94145,2.82436 0.18829,5.64872 1.88291,7.71992 1.69462,2.0712 7.34334,7.34335 10.16771,11.29746 2.82436,3.9541 1.31803,6.96676 5.27214,7.15505 3.95411,0.18829 7.90822,0 10.73258,-2.44778 2.82437,-2.44778 4.1424,-7.90822 9.03796,-9.97942 4.89557,-2.0712 3.76582,-2.0712 9.22626,-3.95411 5.46043,-1.88291 5.27214,-5.08385 6.02531,-1.50632 0.75316,3.57752 -3.95411,6.21359 -5.27215,9.03796 -1.31803,2.82436 -5.64872,9.03796 -6.59018,14.31011 -0.94145,5.27214 -1.50633,9.03796 -3.95411,10.73258 -2.44778,1.69461 -4.33069,0.18829 -3.38923,3.20094 0.94145,3.01266 3.57752,5.64873 5.46043,8.09651 1.88291,2.44778 6.40189,11.48574 6.40189,11.48574"
           id="path3882"
           inkscape:connector-curvature="0" />
      </g>
      <path
         inkscape:connector-curvature="0"
         id="path3884"
         d="m 125.77831,122.47173 c 0,0 -4.1424,-1.88291 -9.79112,-2.25949 -5.64873,-0.37658 -12.4272,0.37658 -15.43986,4.89556 -3.012651,4.51898 -9.037959,13.55694 -11.29745,16.5696 -2.259491,3.01265 -8.661381,7.53163 -2.259491,6.77847 6.401891,-0.75316 4.895564,4.51898 11.674035,-0.75316 6.778476,-5.27215 15.816436,-9.03797 16.946176,-11.67404 1.12975,-2.63607 3.01266,-2.63607 5.27215,-5.64872 2.25949,-3.01266 4.89556,-7.90822 4.89556,-7.90822 z"
         style="color:#000000;fill:none;stroke:#838383;stroke-width:1px;stroke-linecap:butt;stroke-linejoin:miter;stroke-miterlimit:4;stroke-opacity:1;stroke-dasharray:none;stroke-dashoffset:0;marker:none;visibility:visible;display:inline;overflow:visible;enable-background:accumulate" />
      <path
         inkscape:connector-curvature="0"
         id="path3886"
         d="m 84.730899,-70.903013 c 0,0 -0.753164,-5.648726 -4.1424,-5.648726 -3.389236,0 -6.40189,2.25949 -8.096508,0.188291 -1.694618,-2.0712 -6.213599,-9.414545 -10.355998,-9.979417 -4.1424,-0.564873 -12.992072,2.0712 -15.251562,2.0712 -2.259491,0 -4.330691,0.376581 -6.2136,3.577526 -1.882908,3.200945 -6.778471,5.272145 -9.602835,6.778472 -2.824363,1.506327 -0.941454,-1.318036 -2.25949,2.0712 -1.318037,3.389236 -1.318037,9.791126 -0.753164,11.674035 0.564873,1.882909 2.447782,5.648727 1.129745,8.661381 -1.318036,3.012654 -2.447781,10.920871 -0.376581,11.485744 2.071199,0.564872 9.791126,0.564872 10.73258,6.025308 0.941455,5.460436 0.753164,7.719927 2.0712,8.47309 1.318036,0.753164 3.954109,-0.376582 3.200945,4.1424 -0.753164,4.518981 -1.506327,7.719926 -3.577527,7.908217 -2.0712,0.188291 -4.518981,-0.753164 -5.460436,-0.941455 -0.941454,-0.188291 -2.25949,-0.376581 -3.389236,1.506327 -1.129745,1.882909 -3.389235,4.7072726 -1.318036,8.8496721 2.0712,4.14239953 8.096508,10.3559988 14.498399,10.9208714 6.40189,0.5648727 6.966762,2.2594907 12.80378,2.2594907 5.837017,0 14.121816,-0.5648727 15.063271,-1.3180362 0.941454,-0.7531636 5.272145,-0.3765818 5.272145,-0.3765818 0,0 -0.564873,3.3892358 2.25949,4.1423998 2.824363,0.753163 7.531636,1.882909 9.979417,-0.564873 2.447782,-2.4477815 4.1424,-4.5189812 4.330691,-7.9082172 0.18829,-3.38923594 0,-17.5110528 -0.941455,-21.8417428 -0.941454,-4.33069 -1.882909,-7.531635 -3.200945,-8.284799 -1.318036,-0.753164 2.0712,-8.284799 0.753164,-9.791126 -1.318037,-1.506327 -3.765818,-1.506327 -3.200945,-4.518981 0.564872,-3.012655 2.071199,-5.648727 0.18829,-8.284799 -1.882908,-2.636073 -4.895563,-2.636073 -4.518981,-5.837018 0.376582,-3.200945 1.882909,-13.368653 0.376582,-15.439853 z"
         style="color:#000000;fill:none;stroke:#838383;stroke-width:1px;stroke-linecap:butt;stroke-linejoin:miter;stroke-miterlimit:4;stroke-opacity:1;stroke-dasharray:none;stroke-dashoffset:0;marker:none;visibility:visible;display:inline;overflow:visible;enable-background:accumulate" />
      <path
         inkscape:connector-curvature="0"
         id="path3888"
         d="m 0.18829089,-82.765338 c 0,0 -0.37658178,2.636072 4.70727211,4.33069 5.083854,1.694618 16.94618,-1.882909 18.829089,1.694618 1.882909,3.577527 2.636072,4.518981 2.071199,6.966763 -0.564872,2.447781 -3.577526,4.707272 -5.460435,6.213599 -1.882909,1.506327 -5.460436,3.577527 -8.661381,4.33069 -3.2009451,0.753164 -2.8243633,2.447782 -7.3433446,1.694618 -4.51898129,-0.753163 -5.08385395,-0.753163 -5.08385395,-0.753163"
         style="color:#000000;fill:none;stroke:#838383;stroke-width:1px;stroke-linecap:butt;stroke-linejoin:miter;stroke-miterlimit:4;stroke-opacity:1;stroke-dasharray:none;stroke-dashoffset:0;marker:none;visibility:visible;display:inline;overflow:visible;enable-background:accumulate" />
      <path
         inkscape:connector-curvature="0"
         id="path3890"
         d="m 22.406615,-56.781196 c 0,0 -5.272144,-0.753164 -7.908217,0.564873 -2.636072,1.318036 -4.7072719,2.071199 -5.8370172,3.765817 -1.1297453,1.694618 -3.0126542,2.447782 -3.0126542,5.460436 0,3.012654 -1.3180362,5.272145 -1.8829089,6.778472 -0.5648726,1.506327 -0.7531635,2.636072 -2.0711997,3.389236 -1.31803623,0.753163 -3.7658178,0.376582 -1.88290889,2.259491 1.88290889,1.882908 2.25949069,1.694618 4.89556309,3.389235 2.6360724,1.694618 8.2847988,7.719927 12.2389078,8.096509 3.954108,0.376581 7.155053,1.318036 4.895563,2.25949 -2.259491,0.941455 -2.824363,-1.694618 -3.012654,1.506327 -0.188291,3.200945 -0.941455,7.908218 1.318036,8.47309 2.25949,0.564873 9.414544,-3.012654 10.73258,-4.707272 1.318037,-1.694618 -0.188291,-4.707272 2.259491,-4.33069 2.447782,0.376581 6.40189,4.707272 5.460436,0 -0.941455,-4.707272 -2.259491,-6.966763 -3.389236,-9.791126 -1.129746,-2.824364 -6.40189,-3.577527 -8.661381,-4.518982 -2.259491,-0.941454 -0.941454,1.694618 -2.824363,-2.25949 -1.882909,-3.954109 -5.272145,-2.447782 -4.518982,-7.343345 0.753164,-4.895563 3.765818,-3.954109 3.954109,-7.343344 0.188291,-3.389236 -0.753164,-5.648727 -0.753164,-5.648727 z"
         style="color:#000000;fill:none;stroke:#838383;stroke-width:1px;stroke-linecap:butt;stroke-linejoin:miter;stroke-miterlimit:4;stroke-opacity:1;stroke-dasharray:none;stroke-dashoffset:0;marker:none;visibility:visible;display:inline;overflow:visible;enable-background:accumulate" />
      <path
         inkscape:connector-curvature="0"
         id="path3892"
         d="m 48.014176,72.762934 c 0,0 -9.414544,-4.895563 -14.87498,-5.837018 -5.460436,-0.941454 -7.908217,0.188291 -10.167708,-3.200945 -2.25949,-3.389236 -0.564873,-3.389236 -2.824363,-6.025308 -2.259491,-2.636073 -5.460436,-4.1424 -2.0712,-7.343345 3.389236,-3.200945 8.661381,-2.25949 13.933526,-6.025308 5.272145,-3.765818 5.272145,-4.707272 8.66138,-6.025308 3.389236,-1.318037 4.895564,-2.0712 3.577527,-3.765818 -1.318036,-1.694618 -6.025308,2.636072 -6.213599,-0.753164 -0.188291,-3.389236 -4.142399,-6.213599 -0.188291,-7.531635 3.954109,-1.318036 12.050617,-1.506327 15.439853,-0.376582 3.389236,1.129745 4.142399,2.636072 3.765818,4.707272 -0.376582,2.0712 0.376581,1.882909 -1.318037,2.824364 -1.694618,0.941454 -6.025308,1.129745 -6.40189,2.636072 -0.376582,1.506327 -10.167708,2.259491 -1.318036,2.0712 8.849672,-0.188291 12.615489,0 14.686689,-1.882909 2.0712,-1.882909 0.941455,-5.083854 5.460436,-7.155054 4.518981,-2.0712 3.200945,-3.577527 10.920871,-0.564873 7.719927,3.012655 4.707272,4.330691 7.908218,4.707273 3.200945,0.376581 7.343344,-1.129746 8.473089,0.753163 1.129746,1.882909 6.966761,-2.824363 4.895561,4.1424 -2.071197,6.966762 -4.70727,8.66138 -5.460433,9.226253 -0.753164,0.564873 -5.837018,0.564873 -6.778472,2.0712 -0.941455,1.506327 -1.882909,4.142399 -6.025309,4.895563 -4.142399,0.753163 -9.414544,1.694618 -11.109162,4.142399 -1.694618,2.447782 2.636073,3.954109 -4.33069,7.155054 -6.966763,3.200945 -10.167708,2.447782 -11.109163,4.33069 -0.941454,1.882909 -7.531635,2.824364 -7.531635,2.824364 z"
         style="color:#000000;fill:none;stroke:#838383;stroke-width:1px;stroke-linecap:butt;stroke-linejoin:miter;stroke-miterlimit:4;stroke-opacity:1;stroke-dasharray:none;stroke-dashoffset:0;marker:none;visibility:visible;display:inline;overflow:visible;enable-background:accumulate" />
      <path
         sodipodi:nodetypes="ccsssssssssc"
         inkscape:connector-curvature="0"
         id="path3894"
         d="m 34.833814,84.248678 c 0.376582,-1.506327 2.259491,-3.765818 2.259491,-3.765818 0,0 -6.2136,-1.506327 -0.564873,-2.824363 5.648727,-1.318036 9.037963,-1.129745 10.54429,0.188291 1.506327,1.318036 -0.564873,2.071199 1.694618,4.142399 2.25949,2.0712 3.389236,0 4.518981,3.577527 1.129745,3.577527 4.895563,3.200945 2.447781,6.40189 -2.447781,3.200945 -3.389236,0.753164 -3.765817,2.259491 -0.376582,1.506327 -1.882909,2.25949 -5.083854,2.447781 -3.200945,0.188291 -3.765818,2.447782 -5.460436,-0.753163 -1.694618,-3.200945 3.362638,-2.112852 -3.577527,-6.590181 -6.905461,-4.454939 -3.108349,-5.00012 -3.012654,-5.083854 z"
         style="color:#000000;fill:none;stroke:#838383;stroke-width:1px;stroke-linecap:butt;stroke-linejoin:miter;stroke-miterlimit:4;stroke-opacity:1;stroke-dasharray:none;stroke-dashoffset:0;marker:none;visibility:visible;display:inline;overflow:visible;enable-background:accumulate" />
      <path
         sodipodi:nodetypes="cssssssscc"
         inkscape:connector-curvature="0"
         id="path3894-1"
         d="m 62.600464,120.95239 c 6.406582,-4.37173 10.503411,-7.71834 10.443739,-1.44148 -0.02562,2.69438 7.523573,0.14838 10.568478,2.93283 3.044904,2.78446 -3.905733,2.0712 -2.383281,6.8807 1.522452,4.80952 1.136858,4.67984 -2.16179,8.98308 -3.298646,4.30325 -5.508811,4.21348 -6.016294,6.23853 -0.507484,2.02506 -3.290585,0.7781 -7.6042,1.03123 -4.313615,0.25314 -8.349789,-0.85473 -11.689212,-4.40177 -4.103273,-4.35838 -5.138485,-2.6713 -1.431863,-8.29474 1.482934,-10.09755 -0.0639,-5.09347 10.274423,-11.92838 z"
         style="color:#000000;fill:none;stroke:#838383;stroke-width:1.34598625px;stroke-linecap:butt;stroke-linejoin:miter;stroke-miterlimit:4;stroke-opacity:1;stroke-dasharray:none;stroke-dashoffset:0;marker:none;visibility:visible;display:inline;overflow:visible;enable-background:accumulate" />
      <path
         sodipodi:nodetypes="csssssscc"
         inkscape:connector-curvature="0"
         id="path3894-1-7"
         d="m 8.2748332,125.5931 c -0.02562,2.98412 9.5947728,1.66804 12.6396778,1.6148 4.125464,-0.0721 8.144884,-1.12975 9.667336,3.67975 1.522452,4.80952 -1.64054,-0.61779 -2.914954,4.65239 -1.564711,6.47067 -4.318293,3.34799 -4.886549,5.29708 -0.584335,2.00423 -2.725712,0.5898 -7.039327,0.84293 -4.313615,0.25314 -8.0336646,-2.37195 -10.9360484,-6.28467 -3.3287212,-4.48748 -3.97775278,-2.26851 -2.3733175,-7.54158 -4.4696105,-4.07647 2.8270602,-0.39931 5.8431821,-2.2607 z"
         style="color:#000000;fill:none;stroke:#838383;stroke-width:1.34598625px;stroke-linecap:butt;stroke-linejoin:miter;stroke-miterlimit:4;stroke-opacity:1;stroke-dasharray:none;stroke-dashoffset:0;marker:none;visibility:visible;display:inline;overflow:visible;enable-background:accumulate" />
      <path
         sodipodi:nodetypes="cssccssssc"
         inkscape:connector-curvature="0"
         id="path3932"
         d="M 30.691414,24.748758 C 30.860615,24.579557 21.894953,24.883838 15.063271,23.05414 9.1472548,21.46968 3.389236,14.204468 2.0711998,14.392759 0.75316355,14.58105 -0.18829089,17.593704 -0.18829089,17.593704 l 0,5.837018 c 0,0 4.33069039,1.882908 6.02530839,4.142399 1.694618,2.259491 0.1882909,5.460436 5.0838535,5.648727 4.895563,0.188291 14.87498,0.564872 16.569598,-0.753164 1.694618,-1.318036 2.636073,-2.0712 3.012655,-3.389236 0.376581,-1.318036 0.18829,-4.33069 0.18829,-4.33069 z"
         style="color:#000000;fill:none;stroke:#838383;stroke-width:1px;stroke-linecap:butt;stroke-linejoin:miter;stroke-miterlimit:4;stroke-opacity:1;stroke-dasharray:none;stroke-dashoffset:0;marker:none;visibility:visible;display:inline;overflow:visible;enable-background:accumulate" />
      <path
         inkscape:connector-curvature="0"
         id="path3934"
         d="m 107.04598,6.6570878 c 0,0 10.91762,3.1954023 14.11302,2.1302682 3.19541,-1.0651341 11.4502,-7.98850572 15.97702,-7.7222222 4.52682,0.2662835 13.04789,-0.79885057 16.24329,0.7988506 3.1954,1.5977011 17.30843,5.059387 19.4387,3.4616858 2.13027,-1.5977011 9.85249,5.3256708 15.71073,2.6628353 5.85823,-2.6628353 7.18965,-5.059387 12.24904,-4.7931035 5.05938,0.2662835 4.7931,2.1302682 10.38506,2.1302682 5.59195,0 11.45019,-1.0651341 13.04789,-3.9942529 1.5977,-2.9291187 1.5977,-13.8467433 7.45594,-17.5747123 5.85823,-3.72797 21.83525,-6.657088 23.43295,-5.858238 1.5977,0.798851 8.52107,-3.994253 10.91762,-6.657088 2.39655,-2.662835 8.78736,-4.52682 9.31993,-5.591954 0.53256,-1.065134 9.05363,-0.266284 12.24904,-0.266284 3.1954,0 19.97126,0.532567 23.43295,5.325671 3.46168,4.793103 3.99425,20.2375479 3.99425,20.2375479 0,0 -1.86398,-0.5325671 -1.33142,2.9291187 0.53257,3.4616859 2.13027,5.32567053 2.92912,7.7222223 0.79885,2.3965517 -0.53257,7.9885057 2.13027,9.3199231 2.66283,1.331418 7.18965,1.065134 8.25479,0.532567 1.06513,-0.532567 7.9885,2.662836 6.92337,6.124521 -1.06513,3.461686 -6.12452,7.722223 -7.72222,9.05364 -1.5977,1.331418 -2.13027,-0.532567 -1.5977,2.929119 0.53256,3.461686 3.1954,7.189655 3.72797,7.988506 0.53256,0.79885 1.86398,3.727969 -2.13027,8.521073 -3.99425,4.793103 -10.65134,8.521072 -14.91188,8.521072 -4.26054,0 -11.71647,2.662836 -12.51532,4.52682 -0.79886,1.863985 -9.05364,2.396552 -11.98276,-0.79885 -2.92912,-3.195403 -1.5977,-6.390805 -3.19541,-8.25479 -1.5977,-1.863984 -3.99425,-1.065134 -5.32567,0 -1.33141,1.065135 -27.4272,1.863985 -33.01915,4.260537 -5.59196,2.396552 -14.37931,3.195402 -18.10728,0.532567 -3.72797,-2.662835 -12.24905,-7.189655 -15.97701,-8.254789 -3.72797,-1.065134 -9.05364,-0.266284 -11.18391,-3.72797 -2.13027,-3.461686 -3.72797,-5.858237 -1.86399,-7.722222 1.86399,-1.863985 4.52682,-3.727969 2.66284,-6.390805 -1.86399,-2.662835 -13.04789,-3.461685 -17.57471,-2.662835 -4.52682,0.798851 -4.26054,7.189655 -4.79311,9.05364 -0.53257,1.863985 -1.86398,9.05364 -0.53257,10.385058 1.33142,1.331417 3.46169,1.065134 3.46169,4.526819 0,3.461686 -0.79885,10.118774 -2.66283,12.249043 -1.86399,2.130268 -6.12453,11.450191 -9.31993,14.113026 -3.1954,2.662836 -3.99425,6.124522 -8.52107,10.385058 -4.52682,4.260536 -3.99425,3.461686 -6.92337,10.118774 -2.92912,6.657087 -6.39081,12.515327 -6.39081,12.515327"
         style="color:#000000;fill:none;stroke:#838383;stroke-width:1px;stroke-linecap:butt;stroke-linejoin:miter;stroke-miterlimit:4;stroke-opacity:1;stroke-dasharray:none;stroke-dashoffset:0;marker:none;visibility:visible;display:inline;overflow:visible;enable-background:accumulate" />
      <path
         sodipodi:nodetypes="cssssssssssscsssscssssssssssssssscssssssscccscssscccsscssssssssssssscssssssssssscssssssssccc"
         inkscape:connector-curvature="0"
         id="path3986"
         d="m 146.5155,107.90496 c -0.36246,-0.29558 -1.71815,-1.13616 -3.01265,-1.86795 -3.96672,-2.24239 -3.89903,-2.19308 -4.4192,-3.2196 -0.87347,-1.72369 -1.23867,-3.832205 -1.79564,-10.367119 -0.66759,-7.832829 -0.96724,-8.94586 -3.20441,-11.902556 -3.66631,-4.845468 -13.72275,-14.059492 -19.24362,-17.631587 -2.13715,-1.382774 -2.31596,-1.722184 -2.29606,-4.358216 0.0135,-1.788451 0.0972,-2.24649 0.87723,-4.801418 1.61606,-5.293262 2.89239,-10.728732 3.37026,-14.352897 0.30212,-2.291255 0.0851,-3.434866 -1.32609,-6.987951 -1.97127,-4.963255 -2.38911,-6.517815 -3.03332,-11.285214 -0.55299,-4.092352 -1.76572,-7.932398 -3.754,-11.8868865 -0.43226,-0.8597268 -0.75939,-1.5884728 -0.72696,-1.6194335 0.0324,-0.030963 1.42878,0.2664768 3.10299,0.6609726 3.69964,0.8717529 7.4343,1.3967211 9.0269,1.2688829 1.31043,-0.1051887 3.06103,-0.9453521 6.52343,-3.1307823 3.28318,-2.0723069 4.9085,-2.9786432 6.82492,-3.805822 l 1.88291,-0.8127124 6.02531,-0.1565676 c 7.42477,-0.1929304 9.54827,-0.036818 12.02775,0.8842422 5.48528,2.0376313 11.7678,3.4482256 16.1553,3.6273016 2.14885,0.087704 2.7069,0.052539 3.36876,-0.2122867 1.01207,-0.4049478 1.28181,-0.3429549 4.8851,1.1227352 6.05224,2.4618356 8.34564,2.6795243 11.67141,1.1078471 0.7767,-0.3670486 2.62274,-1.3511038 4.1023,-2.1867877 3.39631,-1.9182888 4.66698,-2.2962036 7.24358,-2.1543302 1.53305,0.084414 2.26555,0.2473916 4.42484,0.9845034 2.56453,0.8754528 2.61418,0.884133 5.5582,0.9718709 5.7138,0.1702846 10.30023,-0.8394497 12.79774,-2.8175152 1.07501,-0.8514288 1.54081,-2.01659912 2.48697,-6.2210819 0.45046,-2.0017279 1.04469,-4.3793655 1.32051,-5.2836381 1.07404,-3.5212148 2.83193,-6.1049248 5.06989,-7.4515898 4.19923,-2.526846 15.71516,-5.472509 21.76804,-5.568053 l 2.54192,-0.04012 1.54964,-0.777478 c 2.61431,-1.311641 5.38786,-3.308208 7.77076,-5.593848 1.62466,-1.558349 2.35615,-2.026581 6.02531,-3.856879 1.70874,-0.852374 3.30498,-1.731695 3.54719,-1.954047 0.42948,-0.394265 0.56701,-0.403608 5.55458,-0.377352 16.79455,0.08841 26.04224,1.682634 29.0287,5.004305 1.71122,1.903278 3.01054,6.889281 3.75267,14.400414 0.47873,4.8451727 0.47553,4.9910021 -0.11807,5.3658873 -0.50082,0.3162779 -0.90271,1.2858799 -0.90489,2.1830785 -0.002,0.9638064 0.63232,3.4215749 1.2378,4.7934792 0.35424,0.8025899 0.95003,2.15041187 1.32401,2.9951601 0.65676,1.4834818 0.68541,1.6425461 0.83985,4.6601994 0.0879,1.7183615 0.24885,3.4308182 0.3576,3.8054605 0.71852,2.475321 3.14482,3.517214 7.63128,3.277015 4.04492,-0.216557 3.87772,-0.227853 5.03678,0.34026 l 1.08268,0.530673 2.0712,3.16821 -2.0712,5.427697 -2.25548,2.160879 c -1.24052,1.188482 -2.57503,2.302507 -2.96559,2.475613 -1.26557,0.560943 -1.27209,0.568757 -1.3323,1.599591 -0.12194,2.087054 1.00106,5.165598 3.1781,8.712302 1.37439,2.239097 1.51668,2.962671 0.94967,4.829426 -1.38372,4.555591 -8.36532,10.444735 -14.23815,12.010209 -0.5178,0.138027 -1.91586,0.336749 -3.1068,0.441607 -5.05758,0.445298 -10.63617,2.502325 -12.25743,4.519749 -0.81525,1.014476 -2.11901,1.400658 -4.68875,1.388832 -3.31616,-0.01527 -5.67584,-0.876016 -6.85813,-2.501682 -0.99495,-1.368078 -1.22552,-1.954922 -1.69685,-4.31877 -0.4946,-2.480561 -0.77241,-3.147679 -1.60118,-3.845046 -1.28988,-1.085365 -3.03967,-1.141853 -4.91529,-0.158675 -1.31992,0.691884 -2.13082,0.827403 -8.08243,1.350746 -10.82398,0.951784 -13.10888,1.168042 -16.01062,1.515344 -5.13437,0.614524 -7.39479,1.069824 -10.61508,2.138123 -4.01636,1.332385 -6.06856,1.695058 -9.62619,1.701178 -3.57766,0.0062 -4.93359,-0.308867 -7.11185,-1.65227 -4.28102,-2.640243 -5.81331,-3.504784 -9.40884,-5.308632 -4.4918,-2.253491 -6.52127,-2.964721 -9.66696,-3.38779 -5.95649,-0.801098 -6.60096,-1.122714 -8.42741,-4.205569 -2.36184,-3.986528 -2.36539,-4.411092 -0.057,-6.8057 1.88139,-1.951641 2.24567,-2.581418 2.24567,-3.882404 0,-2.006428 -1.28407,-3.252418 -4.22969,-4.104274 -4.64115,-1.342191 -13.64965,-1.668634 -15.82497,-0.573454 -0.33935,0.170846 -0.94191,0.619033 -1.33904,0.995971 -1.26136,1.197249 -1.75494,2.513122 -2.48185,6.616508 -0.266,1.501619 -0.65441,3.662257 -0.86313,4.801417 -0.21058,1.149305 -0.39492,3.034999 -0.41414,4.236545 -0.0428,2.673789 0.15729,3.105369 2.00891,4.33321 1.94713,1.291169 2.12414,1.82005 1.82701,5.459018 -0.40543,4.965392 -1.1596,7.804263 -2.63103,9.903737 -0.50052,0.714159 -1.86719,2.950722 -3.03704,4.970141 -2.96628,5.120471 -4.12196,6.790865 -6.12272,8.849672 -1.00429,1.033431 -2.63486,3.060902 -3.86148,4.801418 -1.74637,2.478021 -2.68545,3.574871 -5.29168,6.180746 -3.58943,3.588937 -3.62666,3.644716 -6.11725,9.164961 -2.3043,5.107357 -5.9632,12.250267 -6.26604,12.232587 -0.0595,-0.003 -0.40472,-0.24815 -0.76718,-0.54374 z"
         style="fill:#f0f0f0;fill-opacity:1;stroke:none" />
      <g
         id="g4018" />
      <path
         sodipodi:nodetypes="csssssssscc"
         inkscape:connector-curvature="0"
         id="path3994"
         d="m 91.017393,148.23976 c -1.416664,-0.61748 -3.196013,-0.96049 -3.954109,-0.76224 -1.832211,0.47914 -1.744296,-0.441 0.210789,-2.20616 0.874029,-0.78912 5.022851,-5.99803 8.384566,-11.70429 6.868681,-11.65908 8.633311,-11.38688 15.134001,-12.73998 3.35191,-0.69769 13.79281,0.83698 13.89507,2.02844 0.0917,1.06877 -1.58096,4.07174 -7.7465,10.20121 -1.21464,1.20753 -2.55404,3.43626 -4.83935,5.23979 -2.28531,1.80352 -5.7794,3.44471 -8.67476,5.3172 -5.216997,3.37395 -9.360133,5.84394 -9.528264,5.81015 -0.16813,-0.0338 -1.46478,-0.56665 -2.881443,-1.18412 z"
         style="fill:#fefee9;fill-opacity:1;stroke:none" />
      <path
         sodipodi:nodetypes="ssscssssssssssssccssssssssssssscssssscsssssssscccccs"
         inkscape:connector-curvature="0"
         id="path3996"
         d="m 26.545083,275.98596 c -0.387771,-1.4518 -0.05919,-3.4383 0.697229,-4.26103 0.756421,-0.82274 2.187159,-1.21455 4.610551,-2.38257 1.697862,-0.81833 3.037704,-1.69634 4.028464,-2.63252 0.559701,-0.8345 0.422548,-1.53232 0.416881,-2.59297 -0.0075,-1.4033 -0.672291,-2.05605 -1.023589,-2.86709 -0.351298,-0.81105 -0.389101,-1.78041 -0.556831,-2.5795 -0.335461,-1.59819 -0.218358,-3.75276 -1.074753,-4.54227 -0.856396,-0.78951 -1.714016,-1.4514 -3.291816,-1.83199 -1.577799,-0.38058 -3.367597,-0.86296 -5.889314,-1.02805 -2.712884,-0.1776 -4.596348,-0.46266 -6.031851,-0.73933 -0.928033,-0.17886 -1.49325,-0.0936 -2.21024,-0.83886 -0.139219,-0.14471 -0.997367,-0.0876 -0.859677,-1.47169 0.135044,-1.35747 -1.406336,-4.21615 -1.977134,-5.87311 -1.434951,-4.1655 -2.241912,-7.76055 -2.236862,-10.78911 0.0051,-3.02857 0.772751,-4.90134 2.237456,-7.08084 l 1.522242,-2.26513 c 0.511625,-0.65823 1.133878,-1.25009 2.229348,-1.55801 l 6.288262,0.80202 c 9.750843,1.24365 29.033637,0.74685 33.839065,-0.16506 1.077049,-0.20439 2.032036,-0.42745 3.005921,-0.75025 0.973884,-0.32281 1.966666,-0.74535 3.119304,-1.3487 1.152637,-0.60336 3.216432,-2.35979 4.82974,-3.40582 1.613308,-1.04604 3.704208,-2.7517 6.060105,-4.40255 6.428426,-4.5046 10.33087,-5.14445 14.661,-4.45204 3.485098,0.55729 16.583876,6.61175 22.213766,9.99902 1.4842,0.89298 3.64527,1.56687 4.58793,2.64597 0.94266,1.0791 2.08113,4.46376 2.93434,5.91693 1.29726,2.20945 2.52349,2.66932 3.31913,3.12852 0.94823,0.54726 10.64347,0.49373 28.81414,0.76954 23.23051,0.35262 27.34939,0.0765 27.93541,1.00306 0.38462,0.60814 0.48353,1.34969 0.48987,1.59388 0.0178,0.68342 3.302,2.28143 12.6897,5.53113 5.57518,1.92993 9.17172,3.14775 11.68994,4.57528 2.51822,1.42754 4.41814,3.52479 8.57158,7.08215 3.88377,3.3264 8.67695,7.15098 11.0531,8.41873 2.58034,1.3767 4.09737,0.8878 6.29258,3.69672 l 5.58668,6.97759 3.72381,0.39429 c 3.89704,0.41264 26.01121,-3.16719 31.50866,-5.03433 1.17339,-0.39853 3.67465,-2.29204 5.44208,-2.65457 1.55541,-0.31903 3.46642,0.4134 6.25009,0.82683 7.05765,1.0482 15.12241,-0.60965 19.34723,-2.79394 1.44984,-0.74959 5.39117,-4.4545 9.32645,-8.00596 3.93528,-3.55146 8.03688,-7.01186 8.88751,-7.23542 0.85061,-0.22355 3.24745,-1.08418 5.46285,-0.63836 l 5.77501,1.16214 -0.0881,17.31641 2.60706,15.92235 -154.46648,0.37086 L 27.091043,278.03 z"
         style="fill:#f0f0f0;fill-opacity:1;stroke:none" />
      <path
         inkscape:connector-curvature="0"
         id="path3998"
         d="M 81.679114,10.724477 C 80.771276,10.359176 79.807167,9.1784357 79.536651,8.1006167 79.080192,6.2819369 78.824488,6.1720858 75.982817,6.5739213 63.459941,8.3447276 58.131398,8.4299691 50.761801,6.9774074 41.669209,5.1852331 39.23712,4.0631539 35.383392,-0.11764674 30.65316,-5.2493448 30.060799,-8.2437022 33.006404,-12.133217 c 1.154067,-1.523882 1.605542,-1.621268 4.772901,-1.029541 4.71554,0.880958 6.170376,-0.214448 7.260791,-5.466948 0.99439,-4.789951 0.62602,-6.434791 -1.666318,-7.440419 -1.321812,-0.579867 -1.879304,-1.766393 -2.616863,-5.569545 -1.060604,-5.468909 -2.384272,-6.993144 -7.125704,-8.205422 -5.437671,-1.39029 -5.183085,-1.071216 -4.585235,-5.746691 0.6633,-5.187325 0.665303,-10.737616 0.0064,-17.646327 -0.666537,-6.988436 0.120724,-8.763425 4.97869,-11.225143 2.155129,-1.092087 5.262829,-3.44805 6.905999,-5.235474 2.808194,-3.054726 3.367044,-3.316527 9.307269,-4.360123 7.361261,-1.293248 12.167832,-1.416975 14.135582,-0.363867 0.769147,0.411635 2.949776,2.764492 4.84584,5.228571 l 3.447392,4.480143 4.584185,-0.209995 c 4.563055,-0.209027 4.590408,-0.198001 5.934331,2.39223 1.167467,2.250136 1.286037,3.733845 0.876326,10.965829 l -0.473821,8.363604 2.683938,2.531279 c 2.681601,2.529076 2.68351,2.535456 2.192379,7.32918 -0.45536,4.444567 -0.3658,4.885986 1.216142,5.994021 1.61889,1.133915 1.667294,1.419053 0.930724,5.482739 -0.638458,3.5224 -0.576585,4.592457 0.347058,6.002113 2.081643,3.176988 3.122524,9.994561 3.134379,20.5295691 0.01033,9.1826924 -0.159734,10.5983843 -1.541822,12.8346542 -0.854391,1.382428 -2.170682,2.8438517 -2.925093,3.2475987 -1.667559,0.892451 -5.705027,0.880087 -7.95273,-0.02431 l 0,-2.9e-5 z"
         style="fill:#f0f0f0;fill-opacity:1;stroke:none" />
      <path
         inkscape:connector-curvature="0"
         id="path4000"
         d="M 41.360849,68.956069 C 37.906172,67.506586 32.996925,66.062357 30.451413,65.74667 27.9059,65.430983 25.445127,64.939027 24.983028,64.653434 c -0.462099,-0.285593 -1.61048,-2.245001 -2.551957,-4.35424 -0.941478,-2.109239 -2.429228,-4.472334 -3.306112,-5.251324 -3.078271,-2.734617 -1.583632,-4.312938 6.674227,-7.047903 2.707564,-0.896733 6.722424,-2.983341 8.921912,-4.636907 4.821703,-3.624938 9.575265,-6.171449 9.575265,-5.129528 0,1.063781 13.119689,0.892937 16.336067,-0.212726 1.755146,-0.603351 3.104758,-1.821966 4.216312,-3.807069 1.714642,-3.062148 6.28459,-6.364111 8.815582,-6.369596 1.784423,-0.0039 10.39123,3.968469 11.106699,5.126122 0.277858,0.449583 2.473135,0.817424 4.878394,0.817424 2.405259,0 4.579975,0.334572 4.832703,0.743493 0.252728,0.408921 1.617133,0.743492 3.032015,0.743492 2.429846,0 2.545255,0.11339 2.081095,2.044605 -1.374703,5.719676 -4.860241,9.851279 -8.31082,9.851279 -1.050111,0 -2.903059,1.163023 -4.626763,2.90404 -2.324051,2.347393 -3.83572,3.123144 -7.886423,4.047114 -6.191795,1.412355 -8.746272,3.192041 -9.056622,6.309682 -0.286177,2.874817 -2.043395,4.17982 -8.197606,6.087975 -2.59182,0.803612 -5.68343,2.152545 -6.870243,2.997631 -3.482336,2.479641 -6.325109,2.35962 -13.285904,-0.560929 l 0,0 z"
         style="fill:#f0f0f0;fill-opacity:1;stroke:none" />
      <path
         inkscape:connector-curvature="0"
         id="path4002"
         d="m 59.166217,143.38588 c -1.431224,-0.61821 -3.853203,-2.3423 -5.382176,-3.8313 -2.604146,-2.53607 -2.711024,-2.81248 -1.690015,-4.37073 0.599465,-0.9149 1.311916,-3.05164 1.583223,-4.7483 0.396386,-2.47886 1.020466,-3.41755 3.177,-4.77855 9.927537,-6.26535 13.792797,-8.59813 14.246483,-8.59813 0.285443,0 0.714578,0.97795 0.953632,2.17322 0.405317,2.02659 0.725144,2.20582 4.739766,2.65613 6.39848,0.71771 6.522371,0.80001 4.697062,3.12052 -1.332881,1.69448 -1.502923,2.60599 -1.095091,5.87017 l 0.482801,3.8642 -4.703883,4.9125 -4.703884,4.91249 -4.851347,-0.0291 c -2.66824,-0.016 -6.022348,-0.53491 -7.453571,-1.15312 z"
         style="fill:#f0f0f0;fill-opacity:1;stroke:none" />
      <path
         inkscape:connector-curvature="0"
         id="path4004"
         d="M 11.054355,139.17778 C 9.4083785,138.2577 6.8462597,136.12585 5.3607584,134.44032 3.125605,131.9042 2.7368753,130.99059 3.1065317,129.1423 c 0.3851923,-1.92596 0.7455926,-2.20991 2.6179648,-2.06261 1.194204,0.0939 2.3874527,0.38697 2.6516639,0.65119 0.264211,0.26421 4.5428216,0.48038 9.5080236,0.48038 9.354094,0 12.390912,0.82351 11.25591,3.05233 -2.35289,4.6204 -4.11947,7.09423 -5.512014,7.71874 -0.900074,0.40366 -1.636498,0.98916 -1.636498,1.30112 0,1.34134 -8.007816,0.53181 -10.937227,-1.10567 z"
         style="fill:#f0f0f0;fill-opacity:1;stroke:none" />
      <path
         inkscape:connector-curvature="0"
         id="path4006"
         d="m 42.404865,95.394341 c -0.239229,-0.753741 -0.256797,-1.658715 -0.03904,-2.011053 0.526819,-0.852413 -0.757359,-2.328259 -4.564849,-5.246167 l -3.14967,-2.41378 1.840546,-2.708608 c 1.703677,-2.507186 1.744387,-2.762891 0.547446,-3.438577 -1.150774,-0.649624 -1.088517,-0.787435 0.565631,-1.252073 1.022302,-0.287157 3.276171,-0.555454 5.008598,-0.596216 2.938309,-0.06913 3.224772,0.105164 4.265141,2.595119 0.613402,1.468077 1.792089,2.846221 2.619305,3.062543 0.827215,0.216322 2.516677,1.893774 3.75436,3.72767 1.766647,2.617676 2.065165,3.557472 1.388846,4.372385 -0.473816,0.570914 -1.305751,1.038026 -1.848743,1.038026 -0.542991,0 -1.307393,0.572051 -1.69867,1.271224 -0.39282,0.701929 -2.400306,1.651596 -4.482677,2.120586 -3.432642,0.773098 -3.810319,0.72631 -4.206224,-0.521079 l 0,0 z"
         style="fill:#f0f0f0;fill-opacity:1;stroke:none" />
      <path
         inkscape:connector-curvature="0"
         id="path4008"
         d="m 45.269437,36.248193 c 0.862607,-1.395728 -0.992419,-2.832252 -3.657371,-2.832252 -2.486099,0 -2.812251,-0.247723 -3.709433,-2.817436 -0.951556,-2.725451 -0.922345,-2.840751 0.894699,-3.53159 3.173698,-1.206638 13.843402,-0.886935 15.784944,0.472974 2.656038,1.860362 1.9376,4.868189 -1.364001,5.710555 -1.431223,0.365162 -3.104082,1.097709 -3.717463,1.627884 -1.379253,1.192155 -4.807469,2.302005 -4.231375,1.369865 l 0,0 z"
         style="fill:#f0f0f0;fill-opacity:1;stroke:none" />
      <path
         inkscape:connector-curvature="0"
         id="path4010"
         d="m 8.2791262,30.648285 c -0.6365688,-0.90883 -1.1573981,-2.086726 -1.1573981,-2.617547 0,-0.530821 -1.5055727,-2.026354 -3.3457171,-3.323408 -3.52846579,-2.487092 -4.28663842,-4.872619 -2.5687831,-8.082461 0.7298906,-1.363813 1.0337652,-1.241801 5.0185757,2.015055 5.5366294,4.525185 7.6575184,5.348255 16.5090104,6.406777 7.352896,0.87931 7.381377,0.890636 6.958947,2.76735 -0.858599,3.814466 -2.631195,4.486651 -11.831597,4.486651 -7.8639809,0 -8.5027928,-0.110152 -9.5830378,-1.652417 z"
         style="fill:#f0f0f0;fill-opacity:1;stroke:none" />
      <path
         inkscape:connector-curvature="0"
         id="path4012"
         d="m 19.761104,-15.654577 c 0,-3.552103 0.189548,-4.08921 1.443107,-4.08921 1.748972,0 2.719055,-1.339684 1.704637,-2.354102 -0.405654,-0.405654 -2.199918,-1.060933 -3.987253,-1.456175 -3.098158,-0.685112 -5.807731,-2.312128 -14.5903325,-8.761052 -3.88978562,-2.856208 -3.8988694,-2.872375 -2.228687,-3.96672 1.7514722,-1.147609 4.2856733,-7.123696 4.2793372,-10.091422 -0.00913,-4.276615 7.2457433,-9.801671 12.8704373,-9.801671 2.720347,0 2.739232,0.02145 2.739232,3.111925 0,2.108796 -0.48882,3.632251 -1.516428,4.726089 -0.834036,0.88779 -1.713504,2.828595 -1.954373,4.3129 -0.381063,2.348216 -0.09974,3.073091 2.165991,5.580982 1.432166,1.585235 2.897134,3.352003 3.255486,3.92615 0.358351,0.574147 2.324407,1.464598 4.369012,1.978782 4.578809,1.151491 6.660169,3.372471 8.234037,8.786388 1.328179,4.568775 1.150844,5.250462 -1.058301,4.068164 -2.626389,-1.405601 -4.573512,-1.005505 -4.573512,0.939769 0,2.139024 -1.609589,3.660296 -5.961311,5.634218 -4.935993,2.238944 -5.191079,2.113884 -5.191079,-2.545015 z"
         style="fill:#f0f0f0;fill-opacity:1;stroke:none" />
      <path
         inkscape:connector-curvature="0"
         id="path4014"
         d="M 1.3596597,-58.897808 C 0.67913974,-59.172404 0.43029385,-62.02184 0.43029385,-69.539607 l 0,-10.266792 2.78809765,1.424824 c 2.3329516,1.192228 4.1016767,1.391545 10.8347195,1.220965 7.317974,-0.185401 8.145639,-0.06921 9.140075,1.283125 2.992373,4.069325 1.966047,7.325258 -3.627325,11.50738 -5.877455,4.394529 -14.4737906,6.978357 -18.2062013,5.472297 z"
         style="fill:#f0f0f0;fill-opacity:1;stroke:none" />
      <path
         sodipodi:nodetypes="cssscssscsccc"
         inkscape:connector-curvature="0"
         id="path4016"
         d="m 329.7428,-245.44688 c -1.33165,-0.61321 -1.8988,-0.68125 -5.96611,-0.71569 -4.16663,-0.0353 -5.6726,-0.20047 -6.74586,-0.73994 -1.13203,-0.56902 -1.27651,-0.95042 -0.95312,-2.51605 0.27625,-1.3374 0.26224,-2.10065 -0.0498,-2.71222 -0.52693,-1.03286 -1.20797,-1.39779 -6.52169,-3.49455 -4.87914,-1.92527 -7.81018,-3.38116 -7.81018,-3.87943 0,-0.20616 1.17824,-0.68063 5.17467,-2.08381 2.65163,-0.93101 20.65819,-7.08409 24.23328,-8.23569 0.13063,-0.0421 0.55859,2.70002 0.55859,12.3633 0,6.68435 -1.22729,12.2798 -1.28149,12.27371 -0.0542,-0.006 -0.34147,-0.12293 -0.63835,-0.25963 z"
         style="fill:#f0f0f0;fill-opacity:1;stroke:none" />
      <path
         inkscape:connector-curvature="0"
         id="path4022"
         d="m 353.684,-278.74672 -49.15564,0.65716 0,16.82332 z"
         style="color:#000000;fill:none;stroke:none;stroke-width:1px;marker:none;visibility:visible;display:inline;overflow:visible;enable-background:accumulate" />
      <g
         id="g4048">
        <g
           id="g4052">
          <path
             inkscape:connector-curvature="0"
             id="path4026"
             d="m 260.42398,-253.91006 -0.009,-24.08495 35.02668,0 35.02668,0 -0.003,3.51581 -0.003,3.51581 -9.42775,3.20751 c -8.79144,2.99102 -15.49224,5.34571 -17.97083,6.31501 -1.76634,0.69075 -2.21639,0.95377 -2.43726,1.4244 -0.1116,0.23779 -0.23658,0.39868 -0.27773,0.35753 -0.12388,-0.12388 -4.64003,1.97802 -6.7205,3.12784 -1.97863,1.09355 -2.4467,1.41331 -8.11071,5.54079 -8.5241,6.2117 -9.89339,7.28346 -11.11739,8.70172 -2.19802,2.54685 -3.9163,4.21497 -5.26143,5.10781 -0.37994,0.25219 -1.53083,0.80984 -2.55754,1.23921 -3.45177,1.44355 -4.56983,2.52118 -6.00504,5.78788 -0.10557,0.24028 -0.14675,-6.14325 -0.15325,-23.75637 z"
             style="fill:#c6ecff;fill-opacity:1;stroke:none" />
          <path
             sodipodi:nodetypes="ccccsccc"
             inkscape:connector-curvature="0"
             id="path4028"
             d="m 329.87309,-274.3498 0,-3.68001 11.73032,-0.13634 12.47519,-0.58977 -12.83662,4.4091 c -6.18103,2.12305 -11.31796,3.66837 -11.33603,3.67176 -0.0181,0.004 -0.0329,-1.64984 -0.0329,-3.67385 z"
             style="fill:#c6ecff;fill-opacity:1;stroke:none;display:inline" />
        </g>
      </g>
      <path
         inkscape:connector-curvature="0"
         id="path4168"
         d="m 194.79509,-150.99528 c 0,0 11.52413,0.37174 18.58731,2.60222 7.06318,2.23048 17.10034,2.60222 19.33081,1.11524 2.23048,-1.48699 12.26763,-0.37175 16.35684,-2.60223 4.08921,-2.23047 11.89589,-3.34571 15.61335,-2.97397 3.71746,0.37175 7.06318,-1.48698 6.31969,2.97397 -0.7435,4.46096 -6.69144,10.03716 -7.06318,13.38287 -0.37175,3.34572 -16.72859,28.99622 -16.72859,28.99622 0,0 -5.94794,14.498105 -6.69143,18.215569 -0.7435,3.717463 4.8327,10.408898 5.57619,13.754615 0.74349,3.345717 2.97397,2.230478 1.11524,6.691434 -1.85873,4.460956 1.85873,6.691434 -5.20445,11.895883 -7.06318,5.204449 -11.15239,5.947942 -18.58732,6.319688 -7.43492,0.371746 -15.2416,-0.743493 -23.04827,2.602224 -7.80667,3.345717 -13.01112,6.691435 -22.30478,7.806674 -9.29366,1.115239 -21.18954,4.089209 -21.18954,4.089209"
         style="color:#000000;fill:none;stroke:#838383;stroke-width:1px;stroke-linecap:butt;stroke-linejoin:miter;stroke-miterlimit:4;stroke-opacity:1;stroke-dasharray:none;stroke-dashoffset:0;marker:none;visibility:visible;display:inline;overflow:visible;enable-background:accumulate" />
      <path
         inkscape:connector-curvature="0"
         id="path4170"
         d="m 138.47551,-77.389508 c 0,0 7.99255,15.427473 9.85128,21.747161 1.85873,6.319688 7.24906,15.985093 7.24906,15.985093 0,0 1.85873,2.973971 2.60222,4.08921 0.74349,1.115239 4.64683,10.780644 7.06318,13.382868 2.41635,2.602225 18.58732,6.877308 23.23415,9.293659 4.64683,2.416351 9.10778,9.4795319 9.6654,11.5241368 0.55762,2.04460492 0.55762,4.4609562 0.55762,4.4609562"
         style="color:#000000;fill:none;stroke:#838383;stroke-width:1px;stroke-linecap:butt;stroke-linejoin:miter;stroke-miterlimit:4;stroke-opacity:1;stroke-dasharray:none;stroke-dashoffset:0;marker:none;visibility:visible;display:inline;overflow:visible;enable-background:accumulate" />
      <path
         inkscape:connector-curvature="0"
         id="path4172"
         d="m 243.54383,-57.940656 c 0,0 2.10292,0.525728 1.97149,2.365779 -0.13144,1.840051 -0.65717,9.594549 -1.18289,10.120278 -0.52573,0.525729 -2.23435,2.760076 -1.97149,4.862991 0.26287,2.102915 4.4687,5.651583 10.25171,5.257287 5.78302,-0.394297 5.91445,-0.262864 8.93739,1.314322 3.02294,1.577186 4.60013,2.760076 5.52015,2.760076 0.92003,0 1.84005,0.525728 1.84005,0.525728"
         style="color:#000000;fill:none;stroke:#838383;stroke-width:1px;stroke-linecap:butt;stroke-linejoin:miter;stroke-miterlimit:4;stroke-opacity:1;stroke-dasharray:none;stroke-dashoffset:0;marker:none;visibility:visible;display:inline;overflow:visible;enable-background:accumulate" />
      <path
         inkscape:connector-curvature="0"
         id="path4174"
         d="m 343.49363,-228.31853 c 0,0 -0.7435,12.26763 -1.67286,23.97764 -0.92937,11.71001 -2.7881,16.35684 -3.15985,17.10034 -0.37174,0.74349 0.92937,6.31968 -4.46095,7.80667 -5.39033,1.48698 -18.95907,-1.48699 -16.54272,3.71746 2.41636,5.20445 8.3643,11.71001 5.5762,20.07431 -2.7881,8.36429 -3.34572,15.42747 -5.94794,17.2862 -2.60223,1.85873 -8.73604,0.92937 -10.22303,-0.55762 -1.48698,-1.48698 -7.6208,-2.97397 -10.78064,-2.41635 -3.15984,0.55762 -10.59477,-1.48699 -13.01112,1.67286 -2.41635,3.15984 -2.04461,7.06318 -7.80668,5.20445 -5.76206,-1.85873 -11.52413,-3.34572 -11.52413,-3.34572"
         style="color:#000000;fill:none;stroke:#838383;stroke-width:1px;stroke-linecap:butt;stroke-linejoin:miter;stroke-miterlimit:4;stroke-opacity:1;stroke-dasharray:none;stroke-dashoffset:0;marker:none;visibility:visible;display:inline;overflow:visible;enable-background:accumulate" />
      <path
         inkscape:connector-curvature="0"
         id="path4176"
         d="m 278.25214,-133.70908 c 0,0 0.92937,15.98509 5.20445,16.17097 4.27508,0.18587 13.56874,3.15984 18.21557,6.50556 4.64683,3.34571 8.73604,5.94794 11.15239,7.24905 2.41635,1.30111 5.76207,7.992548 5.01858,14.498109 -0.7435,6.505561 -2.23048,11.895883 -2.97397,13.382868 -0.7435,1.486986 -5.5762,6.877308 -2.97397,9.479532 2.60222,2.602224 5.01857,3.345717 3.71746,5.762068 -1.30111,2.416352 -11.89588,5.576196 -13.01112,5.762069 -1.11524,0.185873 -18.40145,3.159844 -19.51669,3.717463 -1.11524,0.55762 -3.90333,1.486986 -4.27508,4.832703 -0.37175,3.345717 -1.11524,6.505561 -0.37175,7.992546 0.7435,1.486986 2.04461,3.345717 2.04461,3.345717"
         style="color:#000000;fill:none;stroke:#838383;stroke-width:1px;stroke-linecap:butt;stroke-linejoin:miter;stroke-miterlimit:4;stroke-opacity:1;stroke-dasharray:none;stroke-dashoffset:0;marker:none;visibility:visible;display:inline;overflow:visible;enable-background:accumulate" />
      <path
         inkscape:connector-curvature="0"
         id="path4178"
         d="m 314.68328,-137.42654 c 0,0 -0.18587,6.8773 1.85873,7.80667 2.04461,0.92937 0.92937,2.60222 4.27509,3.34572 3.34572,0.74349 5.01857,-1.30112 6.13381,2.0446 1.11524,3.34572 1.85873,2.41635 2.23048,6.31969 0.37175,3.90334 -2.41635,9.6654 -4.64683,10.78064 -2.23048,1.11524 -5.39032,2.60223 -6.69143,3.53159 -1.30112,0.92937 -3.15985,2.04461 -3.15985,2.04461"
         style="color:#000000;fill:none;stroke:#838383;stroke-width:1px;stroke-linecap:butt;stroke-linejoin:miter;stroke-miterlimit:4;stroke-opacity:1;stroke-dasharray:none;stroke-dashoffset:0;marker:none;visibility:visible;display:inline;overflow:visible;enable-background:accumulate" />
      <path
         inkscape:connector-curvature="0"
         id="path4180"
         d="m 315.42678,-60.475049 c 0,0 6.50556,0.185873 7.06318,2.230478 0.55762,2.044605 0,3.717463 -1.67286,7.806673 -1.67286,4.08921 -5.39032,10.037151 -7.80668,14.312234 -2.41635,4.275083 -5.94794,4.460956 -5.94794,4.460956"
         style="color:#000000;fill:none;stroke:#838383;stroke-width:1px;stroke-linecap:butt;stroke-linejoin:miter;stroke-miterlimit:4;stroke-opacity:1;stroke-dasharray:none;stroke-dashoffset:0;marker:none;visibility:visible;display:inline;overflow:visible;enable-background:accumulate" />
      <path
         inkscape:connector-curvature="0"
         id="path4182"
         d="m 322.27171,-58.466385 c 0,0 3.15437,1.051458 6.57161,1.314322 3.41724,0.262864 12.35462,0.262864 14.98327,-1.314322 2.62864,-1.577186 4.20583,-3.680101 9.72598,-3.154372 5.52015,0.525729 14.45754,-0.788593 16.82332,-2.891508 2.36578,-2.102915 6.83447,-6.045881 6.57161,-9.463117 -0.26287,-3.417237 -0.7886,-19.977692 2.62864,-24.183522 3.41724,-4.205826 4.20583,-4.994426 7.09734,-5.257286 2.89151,-0.26287 6.83447,-2.62864 7.88593,-7.3602 1.05146,-4.73156 1.57719,-14.45754 4.99442,-16.29759 3.41724,-1.84005 14.98327,2.10291 16.82332,-4.73156 1.84005,-6.83448 0,-17.87478 2.89151,-18.13764 2.89151,-0.26287 7.09734,-2.89151 8.14879,-4.73156 1.05146,-1.84005 7.88594,-10.51458 9.46312,-12.35463 1.57719,-1.84005 1.84005,-9.72598 4.73156,-8.93739 2.89151,0.7886 3.41724,0.52573 3.41724,0.52573"
         style="color:#000000;fill:none;stroke:#838383;stroke-width:1px;stroke-linecap:butt;stroke-linejoin:miter;stroke-miterlimit:4;stroke-opacity:1;stroke-dasharray:none;stroke-dashoffset:0;marker:none;visibility:visible;display:inline;overflow:visible;enable-background:accumulate" />
      <path
         sodipodi:nodetypes="cscssscssssssssssssssc"
         inkscape:connector-curvature="0"
         id="path4184"
         d="m 375.82725,-70.957197 c 0,0 25.8094,7.778175 28.99138,15.909903 3.18198,8.131728 2.47488,32.526912 2.47488,32.526912 0,0 -2.12132,9.899495 -3.18198,18.0312227 -1.06066,8.131728 -7.07107,19.7989903 -8.83884,20.5060963 -1.76777,0.707107 -6.01041,1.060661 -5.65685,3.535534 0.35355,2.474874 4.24264,8.485282 4.24264,8.485282 0,0 2.82842,-2.474874 6.71751,-2.828427 3.88909,-0.353554 9.54594,-1.767767 11.66726,2.474873 2.12132,4.242641 6.01041,16.970563 6.01041,19.79899 0,2.828427 -3.88909,7.071068 -2.12132,9.899495 1.76777,2.828427 5.3033,8.838835 9.8995,8.131728 4.59619,-0.707107 43.84062,-0.707107 46.31549,1.06066 2.47487,1.767767 4.94975,4.596194 10.96016,4.949748 6.0104,0.353553 12.37436,-3.535534 14.49568,-2.828427 2.12132,0.707106 8.13173,3.889087 10.60661,5.3033 2.47487,1.414214 10.25304,0 12.02081,-1.767766 1.76777,-1.767767 12.02082,0.707106 13.78858,3.18198 1.76777,2.474874 4.24264,0.707107 4.94975,2.828427 0.70711,2.121321 0.35355,7.778175 3.53553,8.838835 3.18199,1.06066 15.90991,7.071068 17.32412,7.071068 1.41421,0 6.36396,0.707107 6.36396,0.707107"
         style="color:#000000;fill:none;stroke:#838383;stroke-width:1px;stroke-linecap:butt;stroke-linejoin:miter;stroke-miterlimit:4;stroke-opacity:1;stroke-dasharray:none;stroke-dashoffset:0;marker:none;visibility:visible;display:inline;overflow:visible;enable-background:accumulate" />
      <path
         inkscape:connector-curvature="0"
         id="path4186"
         d="m 406.93995,-24.288149 c 0,0 10.6066,4.596194 14.84925,3.18198 4.24264,-1.414213 9.89949,-6.010407 13.78858,-3.889087 3.88908,2.12132 12.37437,11.667262 14.49569,13.788582 2.12132,2.1213206 5.3033,11.66726216 5.3033,13.0814757 0,1.4142136 0,3.8890873 6.01041,3.8890873 6.0104,0 15.55634,1.4142136 18.73832,-1.0606601 3.18199,-2.4748738 6.01041,-3.88908734 6.36397,-7.7781746 0.35355,-3.8890873 0,-6.3639611 1.41421,-8.1317283 1.41421,-1.767767 2.82843,-3.889087 2.82843,-3.889087"
         style="color:#000000;fill:none;stroke:#838383;stroke-width:1px;stroke-linecap:butt;stroke-linejoin:miter;stroke-miterlimit:4;stroke-opacity:1;stroke-dasharray:none;stroke-dashoffset:0;marker:none;visibility:visible;display:inline;overflow:visible;enable-background:accumulate" />
      <path
         inkscape:connector-curvature="0"
         id="path4188"
         d="m 314.30896,-18.984848 c 0,0 8.83884,-3.181981 11.66727,1.767767 2.82842,4.949747 3.53553,8.8388344 8.13172,10.253048 4.5962,1.4142135 12.72793,0.7071067 16.97057,6.36396099 4.24264,5.65685421 13.43503,16.26345601 14.49569,17.67767001 1.06066,1.414213 0.35355,5.656854 5.65685,7.424621 5.3033,1.767767 10.25305,6.717514 11.66726,8.131728 1.41422,1.414213 8.13173,-1.414214 8.13173,-1.414214 l 3.18198,-3.889087"
         style="color:#000000;fill:none;stroke:#838383;stroke-width:1px;stroke-linecap:butt;stroke-linejoin:miter;stroke-miterlimit:4;stroke-opacity:1;stroke-dasharray:none;stroke-dashoffset:0;marker:none;visibility:visible;display:inline;overflow:visible;enable-background:accumulate" />
      <path
         inkscape:connector-curvature="0"
         id="path4190"
         d="m 333.7544,16.016937 c 0,0 5.65686,-0.53033 8.48528,-1.767767 2.82843,-1.237437 7.77818,-2.298097 10.6066,-2.828427 2.82843,-0.53033 7.07107,-1.414213 7.07107,-1.414213"
         style="color:#000000;fill:none;stroke:#838383;stroke-width:1px;stroke-linecap:butt;stroke-linejoin:miter;stroke-miterlimit:4;stroke-opacity:1;stroke-dasharray:none;stroke-dashoffset:0;marker:none;visibility:visible;display:inline;overflow:visible;enable-background:accumulate" />
      <path
         inkscape:connector-curvature="0"
         id="path4192"
         d="m 327.92077,43.594102 c 0,0 -0.35355,1.06066 3.18198,1.414213 3.53553,0.353554 31.99658,0.176777 35.00179,-1.767767 3.0052,-1.944543 10.42982,-5.833631 13.08147,-6.363961 2.65165,-0.53033 6.18719,-4.24264 6.18719,-4.24264"
         style="color:#000000;fill:none;stroke:#838383;stroke-width:1px;stroke-linecap:butt;stroke-linejoin:miter;stroke-miterlimit:4;stroke-opacity:1;stroke-dasharray:none;stroke-dashoffset:0;marker:none;visibility:visible;display:inline;overflow:visible;enable-background:accumulate" />
      <path
         sodipodi:nodetypes="csssssssc"
         inkscape:connector-curvature="0"
         id="path4194"
         d="m 348.78042,44.654762 c 0,0 -0.88388,6.540738 -1.76777,8.662058 -0.88388,2.12132 -1.76776,11.490485 -2.82842,14.318912 -1.06066,2.828427 -3.71231,13.611806 -6.89429,15.909903 -3.18199,2.298097 -7.95496,7.247844 -10.96016,9.545941 -3.0052,2.298098 -3.94338,5.008252 -5.48008,4.596195 -1.4029,-0.376179 -23.30797,0.660858 -26.33973,-0.353554 -3.34931,-1.120664 -2.16335,-14.645516 -3.88908,-17.147339 -1.20868,-1.75224 0.53033,-19.975767 0.53033,-19.975767"
         style="color:#000000;fill:none;stroke:#838383;stroke-width:1px;stroke-linecap:butt;stroke-linejoin:miter;stroke-miterlimit:4;stroke-opacity:1;stroke-dasharray:none;stroke-dashoffset:0;marker:none;visibility:visible;display:inline;overflow:visible;enable-background:accumulate" />
      <path
         inkscape:connector-curvature="0"
         id="path4196"
         d="m 323.85491,95.743227 c 0,0 9.19238,1.06066 12.19759,2.828427 3.0052,1.767766 6.18718,2.828426 8.48528,2.828426 2.2981,0 14.67247,-7.247843 20.15254,-6.540737 5.48008,0.707107 15.37958,0 16.08668,3.535534 0.70711,3.535533 -2.29809,8.308503 -2.12132,9.192393 0.17678,0.88388 -2.2981,2.29809 -1.59099,3.53553 0.70711,1.23744 2.82843,1.41421 3.71231,2.47487 0.88389,1.06066 -1.23743,4.77297 3.00521,6.18719 4.24264,1.41421 12.72792,1.76776 13.78858,1.06066 1.06066,-0.70711 5.65685,-4.06587 9.72272,-7.42462 4.06586,-3.35876 9.19238,-8.83884 13.78858,-10.96016 4.59619,-2.12132 8.3085,-4.419416 12.02081,-6.540736 3.71231,-2.121321 9.36917,-3.005204 12.02082,-3.005204 2.65165,0 8.66206,1.767767 10.96015,3.358757 2.2981,1.59099 7.07107,6.187183 9.36917,6.894293 2.2981,0.7071 10.07627,4.59619 11.84404,6.89429 1.76776,2.2981 3.0052,7.07107 2.12132,8.48528 -0.88389,1.41421 -2.47488,2.82843 -3.53554,4.41942 -1.06066,1.59099 -0.88388,8.48528 -0.88388,8.48528 l -0.35355,19.79899 c 0,0 -1.94455,3.18198 -1.59099,4.41942 0.35355,1.23743 0.7071,4.24264 3.71231,4.77297 3.0052,0.53033 12.02081,0.88388 14.67246,-0.88389 2.65165,-1.76776 4.5962,-4.41941 6.89429,-3.88908 2.2981,0.53033 6.01041,6.18718 6.01041,6.18718 l 15.9099,18.91511"
         style="color:#000000;fill:none;stroke:#838383;stroke-width:1px;stroke-linecap:butt;stroke-linejoin:miter;stroke-miterlimit:4;stroke-opacity:1;stroke-dasharray:none;stroke-dashoffset:0;marker:none;visibility:visible;display:inline;overflow:visible;enable-background:accumulate" />
      <path
         inkscape:connector-curvature="0"
         id="path4198"
         d="m 395.44947,121.02229 c 0,0 3.88909,0.70711 3.88909,3.88909 0,3.18198 -0.35356,24.21841 4.94974,25.27907 5.3033,1.06066 9.19239,2.47487 10.6066,6.18718 1.41422,3.71231 0.17678,3.00521 4.77298,4.77297 4.59619,1.76777 8.83883,0.70711 10.78337,3.88909 1.94455,3.18198 -0.17677,7.42462 4.77297,7.77818 4.94975,0.35355 9.54595,0.35355 10.78338,2.65165 1.23744,2.29809 2.2981,3.0052 6.89429,3.35875 4.5962,0.35356 8.48529,3.53554 13.43503,6.54074 4.94975,3.00521 7.6014,4.94975 7.77818,7.95495 0.17677,3.00521 2.65165,3.71231 1.76776,5.48008 -0.88388,1.76777 -15.02601,4.24264 -15.9099,8.66206 -0.88388,4.41942 -0.70711,14.31891 -0.70711,14.31891"
         style="color:#000000;fill:none;stroke:#838383;stroke-width:1px;stroke-linecap:butt;stroke-linejoin:miter;stroke-miterlimit:4;stroke-opacity:1;stroke-dasharray:none;stroke-dashoffset:0;marker:none;visibility:visible;display:inline;overflow:visible;enable-background:accumulate" />
      <path
         inkscape:connector-curvature="0"
         id="path4200"
         d="m 433.5,172.5 c 0,0 -0.75,7.25 -2.25,10.75 -1.5,3.5 -2.75,6.5 -4.5,5.75 -1.75,-0.75 0.5,-2.5 -3.25,-3.5 -3.75,-1 -11,0 -12.5,-1.75 -1.5,-1.75 -14,-2.25 -15,-1.25 -1,1 -3.5,5 -6.25,2.75 -2.75,-2.25 -3,-4.5 -7.5,-5 -4.5,-0.5 -5.75,-4.25 -6.5,-6 -0.75,-1.75 -2.75,-7.75 -5,-8 -2.25,-0.25 -6.75,3.25 -7.75,7.25 -1,4 -9.75,11 -10.75,11.75 -1,0.75 -6.25,5 -13.75,5.25 -7.5,0.25 -18.75,1 -19.5,2.75 -0.75,1.75 -3.75,2.5 -2.75,4.5 1,2 4.25,0 2.75,4 -1.5,4 -2.25,3.25 -3.5,5.25 -1.25,2 -1.5,11.25 2.75,12 4.25,0.75 9.75,-0.75 10.25,2 0.5,2.75 -6.5,9.25 -6,11 0.5,1.75 -2.25,11.25 -2.25,11.25"
         style="color:#000000;fill:none;stroke:#838383;stroke-width:1px;stroke-linecap:butt;stroke-linejoin:miter;stroke-miterlimit:4;stroke-opacity:1;stroke-dasharray:none;stroke-dashoffset:0;marker:none;visibility:visible;display:inline;overflow:visible;enable-background:accumulate" />
      <path
         inkscape:connector-curvature="0"
         id="path4202"
         d="m 178.75,230 c 0,0 6.25,-1.25 9,-1.25 2.75,0 23,-5.75 26.25,-9 3.25,-3.25 14.25,-20.25 20,-20.75 5.75,-0.5 31.5,0.25 32.5,-2.75 1,-3 3.5,-16 5,-16.5 1.5,-0.5 2.75,-9.75 0.75,-11 -2,-1.25 -5.75,-6.5 -5.75,-8.75 0,-2.25 -3.25,-9.25 -3.25,-9.25 0,0 2.5,-7 6.5,-6.5 4,0.5 16.75,7 20,10 3.25,3 9.25,3 11.5,6.5 2.25,3.5 8.75,14 10.75,17.25 2,3.25 5,9.75 5,9.75 l 2.5,5.5 0,0"
         style="color:#000000;fill:none;stroke:#838383;stroke-width:1px;stroke-linecap:butt;stroke-linejoin:miter;stroke-miterlimit:4;stroke-opacity:1;stroke-dasharray:none;stroke-dashoffset:0;marker:none;visibility:visible;display:inline;overflow:visible;enable-background:accumulate" />
      <path
         inkscape:connector-curvature="0"
         id="path4204"
         d="m 269.40768,165.57002 c 0,0 7.07107,1.76777 9.8995,1.41422 2.82843,-0.35356 9.19239,-3.71232 12.37437,-4.5962 3.18198,-0.88388 6.54074,-4.06586 6.54074,-4.06586"
         style="color:#000000;fill:none;stroke:#838383;stroke-width:1px;stroke-linecap:butt;stroke-linejoin:miter;stroke-miterlimit:4;stroke-opacity:1;stroke-dasharray:none;stroke-dashoffset:0;marker:none;visibility:visible;display:inline;overflow:visible;enable-background:accumulate" />
      <path
         inkscape:connector-curvature="0"
         id="path4206"
         d="m 316.25351,185.72256 c 0,0 4.24264,-1.94454 4.59619,-6.36396 0.35356,-4.41941 1.06066,-13.43502 3.35876,-14.67246 2.2981,-1.23744 6.54074,-4.94975 6.54074,-7.6014 0,-2.65165 0.88388,-11.13693 -3.71231,-11.66726 -4.5962,-0.53033 -23.33453,1.76777 -23.68808,-2.82843 -0.35355,-4.59619 -1.41421,-9.72272 -4.06586,-9.89949 -2.65165,-0.17678 -7.42463,-1.23744 -7.42463,-1.23744 0,0 3.35876,-3.0052 4.94975,-5.83363 1.59099,-2.82843 0.88389,-7.95495 -0.35355,-10.07627 -1.23744,-2.12132 -7.77818,-10.25305 -8.66206,-10.6066 -0.88388,-0.35356 -6.36396,-1.06067 -1.94454,-4.06587 4.41941,-3.005203 7.60139,-4.419416 7.60139,-4.419416"
         style="color:#000000;fill:none;stroke:#838383;stroke-width:1px;stroke-linecap:butt;stroke-linejoin:miter;stroke-miterlimit:4;stroke-opacity:1;stroke-dasharray:none;stroke-dashoffset:0;marker:none;visibility:visible;display:inline;overflow:visible;enable-background:accumulate" />
      <path
         inkscape:connector-curvature="0"
         id="path4208"
         d="m 151.32085,119.78486 c 0,0 -2.12132,-1.23744 4.06587,2.12132 6.18718,3.35876 4.94974,3.0052 11.13693,-0.35356 6.18718,-3.35875 14.67246,-8.3085 17.67767,-9.89949 3.0052,-1.59099 12.19759,-8.13173 14.14213,-9.01561 1.94455,-0.88389 4.24264,-3.889089 7.24785,-3.535536 3.0052,0.353554 5.65685,0 8.13172,1.767766 2.47488,1.76777 16.61701,10.25305 18.208,11.66726 1.59099,1.41422 7.77818,8.48528 11.13694,8.83884 3.35875,0.35355 13.78858,5.83363 15.55635,6.89429 1.76776,1.06066 9.36916,4.94975 10.78337,6.01041 1.41422,1.06066 4.77297,3.18198 7.42463,2.82842 2.65165,-0.35355 9.72271,-1.94454 10.96015,-3.0052 1.23744,-1.06066 4.06586,-2.65165 4.06586,-2.65165"
         style="color:#000000;fill:none;stroke:#838383;stroke-width:1px;stroke-linecap:butt;stroke-linejoin:miter;stroke-miterlimit:4;stroke-opacity:1;stroke-dasharray:none;stroke-dashoffset:0;marker:none;visibility:visible;display:inline;overflow:visible;enable-background:accumulate" />
      <path
         inkscape:connector-curvature="0"
         id="path4210"
         d="m 180.84256,47.836742 9.36916,0.176777 10.25305,-4.596194"
         style="color:#000000;fill:none;stroke:#838383;stroke-width:1px;stroke-linecap:butt;stroke-linejoin:miter;stroke-miterlimit:4;stroke-opacity:1;stroke-dasharray:none;stroke-dashoffset:0;marker:none;visibility:visible;display:inline;overflow:visible;enable-background:accumulate" />
      <path
         inkscape:connector-curvature="0"
         id="path4212"
         d="m 212.13203,46.599306 c 0,0 -2.29809,2.12132 -1.76776,5.833631 0.53033,3.71231 1.94454,3.889087 2.47487,7.424621 0.53033,3.535534 0.53033,5.303301 -0.88388,6.717514 -1.41422,1.414214 -4.06587,0.883884 -5.83363,3.358757 -1.76777,2.474874 -2.12132,11.490486 -1.41422,12.551146 0.70711,1.06066 2.2981,0.176776 2.82843,2.828427 0.53033,2.65165 -0.35355,9.192388 -0.70711,10.960155 -0.35355,1.767767 -0.35355,2.65165 -0.35355,2.65165"
         style="color:#000000;fill:none;stroke:#838383;stroke-width:1px;stroke-linecap:butt;stroke-linejoin:miter;stroke-miterlimit:4;stroke-opacity:1;stroke-dasharray:none;stroke-dashoffset:0;marker:none;visibility:visible;display:inline;overflow:visible;enable-background:accumulate" />
      <path
         inkscape:connector-curvature="0"
         id="path4214"
         d="m 148.6692,112.00668 c 0,0 1.41421,-1.59099 7.77818,-4.77297 6.36396,-3.18198 13.25825,-7.778172 15.73312,-7.424619 2.47488,0.353549 9.72272,-1.944544 10.25305,-3.005204 0.53033,-1.06066 2.65165,-7.778175 3.0052,-10.076272 0.35356,-2.298097 3.88909,-5.3033 5.83363,-8.308504 1.94455,-3.005204 8.66206,-6.717515 10.78338,-7.424621 2.12132,-0.707107 3.71231,-0.353554 3.71231,-0.353554"
         style="color:#000000;fill:none;stroke:#838383;stroke-width:1px;stroke-linecap:butt;stroke-linejoin:miter;stroke-miterlimit:4;stroke-opacity:1;stroke-dasharray:none;stroke-dashoffset:0;marker:none;visibility:visible;display:inline;overflow:visible;enable-background:accumulate" />
      <path
         inkscape:connector-curvature="0"
         id="path4216"
         d="m 212.66236,65.867965 c 0,0 1.41422,1.414214 4.94975,1.590991 3.53554,0.176776 11.31371,0.176776 12.55115,-0.707107 1.23743,-0.883884 3.88908,-1.59099 5.12652,-3.535534 1.23744,-1.944544 1.76777,-7.247845 1.76777,-7.247845"
         style="color:#000000;fill:none;stroke:#838383;stroke-width:1px;stroke-linecap:butt;stroke-linejoin:miter;stroke-miterlimit:4;stroke-opacity:1;stroke-dasharray:none;stroke-dashoffset:0;marker:none;visibility:visible;display:inline;overflow:visible;enable-background:accumulate" />
      <path
         inkscape:connector-curvature="0"
         id="path4218"
         d="m 255.08877,52.25616 c 0,0 4.24264,1.59099 4.5962,3.889087 0.35355,2.298097 1.23743,7.954951 2.12132,10.253048 0.88388,2.298097 1.59099,5.833631 1.59099,7.954952 0,2.12132 -2.2981,8.662058 -2.2981,8.662058 0,0 -2.65165,8.838835 -3.53553,12.374369 -0.88389,3.535533 -2.47488,9.899496 -3.71232,12.374366 -1.23743,2.47488 -6.36396,12.02082 -7.42462,12.72792 -1.06066,0.70711 -3.18198,1.23744 -3.18198,1.23744"
         style="color:#000000;fill:none;stroke:#838383;stroke-width:1px;stroke-linecap:butt;stroke-linejoin:miter;stroke-miterlimit:4;stroke-opacity:1;stroke-dasharray:none;stroke-dashoffset:0;marker:none;visibility:visible;display:inline;overflow:visible;enable-background:accumulate" />
      <path
         inkscape:connector-curvature="0"
         id="path4220"
         d="m 263.39728,73.999693 c 0,0 0.53033,1.944544 5.12652,2.298097 4.59619,0.353554 11.13693,-3.18198 14.14214,-4.77297 3.0052,-1.590991 4.77297,-3.889088 6.18718,-3.181981 1.41421,0.707107 1.59099,0.707107 1.59099,0.707107"
         style="color:#000000;fill:none;stroke:#838383;stroke-width:1px;stroke-linecap:butt;stroke-linejoin:miter;stroke-miterlimit:4;stroke-opacity:1;stroke-dasharray:none;stroke-dashoffset:0;marker:none;visibility:visible;display:inline;overflow:visible;enable-background:accumulate" />
      <path
         inkscape:connector-curvature="0"
         id="path4222"
         d="m 218.84955,103.16785 c 0,0 9.01561,-6.187186 13.25825,-7.247846 4.24264,-1.060661 15.73313,-7.247845 18.73833,-7.424622 3.0052,-0.176776 8.48528,0.176777 8.48528,0.176777"
         style="color:#000000;fill:none;stroke:#838383;stroke-width:1px;stroke-linecap:butt;stroke-linejoin:miter;stroke-miterlimit:4;stroke-opacity:1;stroke-dasharray:none;stroke-dashoffset:0;marker:none;visibility:visible;display:inline;overflow:visible;enable-background:accumulate" />
      <path
         inkscape:connector-curvature="0"
         id="path4224"
         d="m 255.79588,101.57686 6.36396,1.41421 c 0,0 9.01561,-1.94454 10.25305,-2.12132 1.23743,-0.17678 5.48008,-1.414212 9.72272,-1.237436 4.24264,0.176777 3.88908,1.060656 3.88908,1.060656"
         style="color:#000000;fill:none;stroke:#838383;stroke-width:1px;stroke-linecap:butt;stroke-linejoin:miter;stroke-miterlimit:4;stroke-opacity:1;stroke-dasharray:none;stroke-dashoffset:0;marker:none;visibility:visible;display:inline;overflow:visible;enable-background:accumulate" />
      <path
         sodipodi:nodetypes="ccssssssscccc"
         inkscape:connector-curvature="0"
         id="path4228"
         d="m 0.04224239,266.66587 -0.04419417,-11.25208 0.77408794,-0.85713 c 0.41387624,-0.45828 1.08975404,-0.76873 1.31352284,-0.76873 0.4071371,0 1.3833455,0.38627 2.3538295,1.30393 0.970484,0.91766 1.9352436,2.36671 3.0265895,3.96194 2.774951,4.05618 4.334547,5.97092 6.308288,7.12761 0.842055,0.49347 1.927047,1.26853 2.141016,1.66834 0.213969,0.3998 0.742872,3.11969 0.743229,5.61869 l 0.177418,4.44984 -8.3968936,0.044 -8.35269883,-0.0444 z"
         style="fill:#f0f0f0;fill-opacity:1;stroke:none" />
    </g>
  </g>
</svg>
