<svg xmlns="http://www.w3.org/2000/svg" xmlns:xlink="http://www.w3.org/1999/xlink" version="1.0" x="0px" y="0px" viewBox="0 0 100 125" enable-background="new 0 0 100 100" xml:space="preserve"><path d="M46.6546898,16.6343613c1.9756088-2.6232061,1.7607117-5.1368475-2.3829041-6.9790726  c0,0,4.3324432-2.5667028,1.0731544-2.3757586c-3.2592926,0.1908789-3.2254829-0.1661334-2.5598221-1.3169618  c0.665657-1.1508284,0.1658669-1.4587483-2.80019-0.5916901c-2.9661255,0.8671241-11.8193798,2.9386015-6.6515045,10.2106075  C38.501236,22.8534908,44.6790161,19.2575665,46.6546898,16.6343613z"/><path d="M83.0169373,63.7873573c-4.8780212-7.317028-11.3945541-10.0270386-20.8733711-5.4200211l-0.0011253-0.0002289  c0.0025139-0.3200607-0.0042992-0.6709213-0.0223618-1.0587654c-0.6056519-13.0073891-8.9239159-33.2227097-19.1661148-33.6291428  c-10.2422028-0.4065018-14.1694679,2.077631-14.1694679,2.077631s-8.8878555,25.12397-7.3567924,30.1714973  c0.931633,3.0713272,3.493969-3.4977379,3.493969-3.4977379c2.0943031-3.6583481,6.9469166-26.9447594,3.6881561,17.8851471  c-2.20784,30.3712387,4.4795876,12.576767,5.3469772,4.4471664c0.8673248-8.129631,4.4602051-17.0727043,7.8065643-9.3495331  c3.3463631,7.7231293,3.3732224,34.0106354,6.7956047,28.0718307c4.1502991-7.202034-1.7301445-54.9008102,0.5828247-52.0554314  c1.3417053,1.6505547,5.6975708,11.1053238,9.0011253,16.216465l-0.0000648-0.0000305c0,0,2.6393471,5.6663742,4.4134941,12.4644928  c1.6797295,6.436409,2.6197014,29.8101196,5.5555229,24.2401047c3.8780365-7.3575134,3.2520142-24.0594177,5.5555191-14.0323715  c2.3035126,10.0270386,4.6070175,21.5445862,4.8780212,5.0135193s-2.8455124-27.3711128,2.5745087-18.5635757  S87.8949585,71.1043854,83.0169373,63.7873573z"/><path d="M71.7252045,53.4893188c2.6691208,0,4.8328934-2.4468842,4.8328934-5.4652138  c0-3.0183258-2.1637726-5.46521-4.8328934-5.46521c-2.6691284,0-4.8328323,2.4468842-4.8328323,5.46521  C66.8923721,51.0424347,69.056076,53.4893188,71.7252045,53.4893188z M71.7252045,49.943676  c0.5737534,0,1.0388794,0.4044495,1.0388794,0.9033813c0,0.4988632-0.465126,0.9033127-1.0388794,0.9033127  c-0.5737,0-1.0388184-0.4044495-1.0388184-0.9033127C70.6863861,50.3481255,71.1515045,49.943676,71.7252045,49.943676z"/></svg>