<svg xmlns:dc="http://purl.org/dc/elements/1.1/" xmlns:cc="http://creativecommons.org/ns#" xmlns:rdf="http://www.w3.org/1999/02/22-rdf-syntax-ns#" xmlns:svg="http://www.w3.org/2000/svg" xmlns="http://www.w3.org/2000/svg" xmlns:sodipodi="http://sodipodi.sourceforge.net/DTD/sodipodi-0.dtd" xmlns:inkscape="http://www.inkscape.org/namespaces/inkscape" version="1.1" x="0px" y="0px" viewBox="0 0 100 125"><g transform="translate(0,-952.36218)"><path d="m 49.812502,961.36707 c -0.4113,0.0351 -0.8104,0.20143 -1.125,0.46875 L 6.6875015,997.83585 c -0.7936,0.6871 -0.8904,2.0344 -0.2032,2.82805 0.6872,0.7936 2.0346,0.8904 2.8282,0.2032 l 40.6875005,-34.87503 40.687497,34.87503 c 0.7936,0.6872 2.140999,0.5904 2.828199,-0.2032 0.687201,-0.79365 0.590401,-2.14095 -0.203199,-2.82805 l -16.312498,-13.96878 0,-22.4375 -8,0 0,15.5625 -17.6875,-15.15625 c -0.4094,-0.34953 -0.9644,-0.52295 -1.5,-0.46875 z m 0.1875,8 -32,26.99998 0,47.00005 63.999999,0 0,-47.00005 z m -16,32.00003 14,0 0,14 -14,0 z m 18,0 13.999999,0 0,14 -13.999999,0 z m -18,18 14,0 0,14 -14,0 z m 18,0 13.999999,0 0,14 -13.999999,0 z" style="color:#000000;enable-background:accumulate;" fill="#000000" stroke="none" marker="none" visibility="visible" display="inline" overflow="visible"/></g></svg>